<svg xmlns="http://www.w3.org/2000/svg" width="20" height="20" fill="none">
    <path fill="#fff" d="M0 0h20v20H0z"/>
    <rect width="14" height="14" x="3" y="3" fill="#FF5443" rx="7"/>
    <path fill="#fff" fill-rule="evenodd" d="M11.646 9.949a.443.443 0 0 1-.13.314l-2.783 2.783a.222.222 0 0 1-.314-.314l2.783-2.783-2.783-2.784a.222.222 0 0 1 .314-.314l2.783 2.783c.087.087.13.2.13.315Z" clip-rule="evenodd"/>
    <path stroke="#fff" stroke-width=".5" d="M11.646 9.949a.443.443 0 0 1-.13.314l-2.783 2.783a.222.222 0 0 1-.314-.314l2.783-2.783-2.783-2.784a.222.222 0 0 1 .314-.314l2.783 2.783c.087.087.13.2.13.315"/>
</svg>