<svg xmlns="http://www.w3.org/2000/svg" width="360" height="159" fill="none" viewBox="0 0 360 159"><g stroke="#FFD488" opacity=".6"><path d="M371.516 104.196C346.564 55.922 288.519-16.787 221.36 7.362 142.514 35.714 169.16 55.736-4.217 63.7"/><path d="M370.79 116.465C345.837 68.192 287.793-4.517 220.634 19.632 141.788 47.983 168.433 68.005-4.943 75.968"/><path d="M369.595 127.557C344.642 79.284 286.598 6.575 219.439 30.724 140.593 59.075 167.238 79.097-6.138 87.06"/><path d="M368.1 141.422C343.148 93.148 285.103 20.44 217.944 44.589c-78.846 28.35-52.2 48.373-225.577 56.336"/><path d="M368.1 156.089c-24.952-48.273-82.997-120.982-150.156-96.833-78.846 28.351-52.2 48.374-225.577 56.337"/></g></svg>