<svg xmlns="http://www.w3.org/2000/svg" width="101" height="80" fill="none"><g clip-path="url(#a)"><g filter="url(#b)"><path fill="#FFD488" d="M92.704 44.272a9.134 9.134 0 1 0-16.12-8.595 9.134 9.134 0 0 0 16.12 8.595"/><path fill="#F4BD59" d="M77.996 33.708a9.13 9.13 0 0 1 12.911-.38l1.38-1.465c-4.48-4.222-11.536-4.016-15.758.465l1.465 1.38zM91.29 46.238a9.13 9.13 0 0 1-12.91.38L77 48.084c4.48 4.222 11.535 4.016 15.757-.465l-1.464-1.38z"/><path fill="#F4BD59" d="M90.907 33.328a9.13 9.13 0 0 1 .38 12.91l1.465 1.38c4.222-4.48 4.016-11.535-.465-15.757l-1.38 1.464zM78.38 46.619A9.13 9.13 0 0 1 78 33.708l-1.465-1.38c-4.222 4.48-4.016 11.536.465 15.758l1.38-1.464z"/></g><g filter="url(#c)"><path fill="#FFD488" d="M91.16 53.896a6.978 6.978 0 1 0-12.276-6.64 6.978 6.978 0 0 0 12.277 6.64"/><path fill="#F4BD59" d="M79.945 45.79a6.98 6.98 0 0 1 9.867-.293l1.054-1.119a8.516 8.516 0 0 0-12.04.355l1.12 1.054zM90.102 55.364a6.98 6.98 0 0 1-9.867.293l-1.054 1.118a8.516 8.516 0 0 0 12.04-.354l-1.12-1.054z"/><path fill="#F4BD59" d="M89.809 45.5a6.98 6.98 0 0 1 .29 9.867l1.119 1.054a8.516 8.516 0 0 0-.355-12.04zM80.235 55.656a6.98 6.98 0 0 1-.293-9.867l-1.119-1.054a8.516 8.516 0 0 0 .355 12.04l1.054-1.12z"/></g><g filter="url(#d)"><path fill="#EDA04B" d="M81.795 56.786a4.2 4.2 0 1 0-8.303 1.274 4.2 4.2 0 0 0 8.303-1.274"/><path fill="#CF6400" d="M77.007 53.271a4.2 4.2 0 0 1 4.788 3.514l.915-.14a5.125 5.125 0 0 0-5.844-4.288z"/><path fill="#E86C00" d="M78.28 61.574a4.2 4.2 0 0 1-4.788-3.514l-.915.14a5.125 5.125 0 0 0 5.844 4.288z"/><path fill="#E67E1C" d="M81.795 56.786a4.2 4.2 0 0 1-3.514 4.788l.14.915a5.125 5.125 0 0 0 4.288-5.844z"/><path fill="#DE7100" d="M73.492 58.06a4.2 4.2 0 0 1 3.514-4.79l-.14-.914a5.125 5.125 0 0 0-4.288 5.844z"/></g><path fill="#fff" d="m77.737 26.165.813-12.585-40.038-2.586v-.005l-4.576 70.864 1.146-1.023 1.013 1.173 1.155-1.033 1.013 1.173 1.155-1.033 1.013 1.173 1.155-1.033 1.013 1.173 1.155-1.033 1.013 1.173 1.155-1.033 1.012 1.173 1.153-1.033 1.012 1.173 1.141-1.018.014-.012 1 1.155 1.141-1.017 1.013 1.173 1.152-1.033 1.013 1.173 1.155-1.033 1.013 1.173 1.155-1.033 1.013 1.173 1.155-1.033 1.013 1.173 1.155-1.033 1.012 1.173L65.4 82.79l1.012 1.173 1.152-1.028.006-.005 1.008 1.164 1.146-1.025 1.013 1.173 1.153-1.033 1.012 1.173 1.14-1.02z"/><path fill="#DADCDB" d="m85.68 39.816 1.026 1.187h.003l-1.028-1.19zM87.878 39.957l1.026 1.188v-.003l-1.026-1.187z"/><path fill="#DADCDB" d="m86.709 41.003 1.17-1.045-.003-.003z"/><path fill="#BEC0BF" d="m42.923 23.498-.557 8.619-1.125-.073.556-8.619zm5.108 2.056q1.237.08 1.955.884.718.791.627 2.2l-.258 3.995-1.112-.072.247-3.833q.066-1.014-.407-1.579-.472-.577-1.35-.633-.89-.058-1.458.464-.555.524-.624 1.587l-.242 3.747-1.125-.073.438-6.777 1.125.073-.062.965q.367-.497.954-.746.6-.246 1.292-.202m6.752 6.322 2.473-5.602 1.2.077-3.097 6.605-1.31-.085-2.222-6.948 1.212.079zm7.29 1.625a3.5 3.5 0 0 1-1.703-.544 3.15 3.15 0 0 1-1.133-1.303q-.38-.831-.313-1.882.067-1.039.564-1.802.51-.774 1.315-1.144a3.54 3.54 0 0 1 1.772-.32 3.54 3.54 0 0 1 1.715.545q.753.47 1.146 1.291.407.82.339 1.872-.068 1.05-.59 1.825a3.2 3.2 0 0 1-1.328 1.143 3.6 3.6 0 0 1-1.784.32m.064-.989a2.4 2.4 0 0 0 1.156-.21q.55-.25.909-.799.37-.548.423-1.363.053-.816-.232-1.406a2.07 2.07 0 0 0-.787-.895 2.3 2.3 0 0 0-1.107-.357 2.34 2.34 0 0 0-1.156.21q-.525.24-.87.789-.346.548-.399 1.365-.052.828.207 1.416.272.59.76.906.49.305 1.096.344m-21.03 10.653a.74.74 0 0 1-.53-.257.74.74 0 0 1-.188-.559q.021-.32.258-.53a.74.74 0 0 1 .558-.187.69.69 0 0 1 .505.256.74.74 0 0 1 .188.559.74.74 0 0 1-.258.53.69.69 0 0 1-.534.188m.472 1.136-.437 6.776-1.126-.072.438-6.777zm1.28 3.473q.067-1.051.538-1.803.472-.765 1.242-1.15.781-.383 1.746-.321 1.25.08 2.014.738.777.66.967 1.751l-1.212-.078a1.73 1.73 0 0 0-.617-1.02q-.47-.391-1.213-.44-.965-.061-1.601.568-.636.617-.715 1.829-.078 1.224.472 1.93.55.705 1.515.769.742.048 1.259-.267.516-.314.744-.945l1.212.078a3 3 0 0 1-1.196 1.6q-.857.564-2.08.486-.965-.063-1.691-.544a3.03 3.03 0 0 1-1.084-1.3q-.369-.817-.3-1.881m14.13.664q-.02.321-.081.678l-5.416-.35q-.004 1.005.579 1.614.594.597 1.485.655.729.047 1.233-.256.517-.315.752-.87l1.211.078a2.95 2.95 0 0 1-1.19 1.525q-.856.553-2.068.475a3.47 3.47 0 0 1-1.703-.545 3.1 3.1 0 0 1-1.108-1.3q-.38-.833-.313-1.883.068-1.051.54-1.816.47-.764 1.252-1.136.795-.383 1.784-.319.965.062 1.68.53.714.47 1.062 1.236.36.757.301 1.684m-1.147-.31q.041-.643-.213-1.12a1.8 1.8 0 0 0-.734-.754 2.3 2.3 0 0 0-1.06-.317 2.1 2.1 0 0 0-1.494.45q-.629.505-.778 1.465z"/><path fill="#535353" d="m37.06 74.726.026-.388 2.708.175-.025.388-1.136-.074-.208 3.224-.437-.029.208-3.223zm6.19 1.823q-.037.572-.27.974-.234.403-.608.606-.375.202-.837.172a1.5 1.5 0 0 1-.807-.279 1.55 1.55 0 0 1-.525-.678q-.18-.43-.142-1 .038-.572.27-.975.233-.403.608-.605.374-.203.836-.173t.807.279.525.678.142 1.001m-.424-.027q.03-.47-.106-.802a1.14 1.14 0 0 0-.39-.516A1.1 1.1 0 0 0 41.75 75a1.1 1.1 0 0 0-.605.127q-.276.15-.453.462t-.207.782q-.03.469.104.801.136.333.39.516.255.183.584.204t.603-.127q.278-.15.453-.462.178-.312.208-.781m.902-1.366.025-.388 2.709.175-.025.388-1.136-.073-.208 3.223-.437-.028.208-3.223zm-6.917 8.803-.458-.03 1.559-3.525.452.029 1.092 3.697-.458-.03-.883-3.11-.028-.001zm.26-1.4 1.849.12-.025.388-1.849-.12zm2.948 1.607.233-3.611.437.028-.208 3.224 1.679.108-.025.388z"/><path fill="#AEAEAE" d="m74.293 33.724-32.516-2.1-.068 1.064 32.515 2.1z"/><path fill="#757575" d="m41.712 32.686 32.515 2.1.034-.532-32.515-2.1z"/><path fill="#AEAEAE" d="m71.147 70.62-32.515-2.1-.069 1.065 32.515 2.1z"/><path fill="#757575" d="m38.566 69.584 32.515 2.1.035-.53-32.516-2.1z"/><path fill="#535353" d="m63.302 74.369-.04.604-.038.602 7.23.467.04-.602.039-.604z"/><path stroke="#757575" stroke-miterlimit="10" stroke-width=".8" d="m40.84 34.325.24.015M41.56 34.371l31.32 2.023M73.118 36.409l.24.015M38.807 65.815l.24.016M39.526 65.862l31.32 2.023M71.085 67.9l.24.015"/><path stroke="#BEC0BF" stroke-miterlimit="10" stroke-width=".8" d="m47.007 76.576 23.659 1.528"/><path stroke="#757575" stroke-miterlimit="10" stroke-width="1.494" d="m44.543 38.433-3.802-.246M53.386 39.004l-7.87-.508M57.261 39.255l-2.878-.186"/><path stroke="#BEC0BF" stroke-miterlimit="10" stroke-width=".8" d="M68.259 39.965 58.9 39.36"/><path stroke="#494949" stroke-miterlimit="10" stroke-width="1.6" d="m72.96 40.268-3.176-.205"/><path stroke="#757575" stroke-miterlimit="10" stroke-width="1.494" d="m50.494 42.207-9.97-.644M57.044 42.63l-3.876-.25"/><path stroke="#BEC0BF" stroke-miterlimit="10" stroke-width=".8" d="m68.04 43.34-9.357-.604"/><path stroke="#494949" stroke-miterlimit="10" stroke-width="1.6" d="m72.742 43.643-3.176-.205"/><path stroke="#757575" stroke-miterlimit="10" stroke-width="1.494" d="m45.918 45.298-5.613-.362M52.95 45.753l-5.348-.346M56.825 46.003l-2.878-.186"/><path stroke="#BEC0BF" stroke-miterlimit="10" stroke-width=".8" d="m67.823 46.713-9.358-.604"/><path stroke="#494949" stroke-miterlimit="10" stroke-width="1.6" d="m72.524 47.017-3.176-.205"/><path stroke="#757575" stroke-miterlimit="10" stroke-width="1.494" d="m42.542 48.47-2.454-.16M50.08 48.956l-6.349-.41M56.608 49.378l-5.294-.342"/><path stroke="#BEC0BF" stroke-miterlimit="10" stroke-width=".8" d="m67.605 50.088-9.358-.604"/><path stroke="#494949" stroke-miterlimit="10" stroke-width="1.6" d="m72.306 50.392-3.176-.205"/><path stroke="#757575" stroke-miterlimit="10" stroke-width="1.494" d="m51.762 52.453-11.893-.768M56.39 52.753l-2.88-.186"/><path stroke="#BEC0BF" stroke-miterlimit="10" stroke-width=".8" d="m67.387 53.463-9.358-.605"/><path stroke="#494949" stroke-miterlimit="10" stroke-width="1.6" d="m72.088 53.766-3.176-.205"/><path stroke="#757575" stroke-miterlimit="10" stroke-width="1.494" d="m45.264 55.423-5.613-.363M56.172 56.127l-9.224-.595"/><path stroke="#BEC0BF" stroke-miterlimit="10" stroke-width=".8" d="m67.169 56.838-9.358-.605"/><path stroke="#494949" stroke-miterlimit="10" stroke-width="1.6" d="m71.87 57.141-3.176-.205"/><path stroke="#757575" stroke-miterlimit="10" stroke-width="1.494" d="m43.235 58.68-3.802-.246M52.078 59.25l-7.87-.508M55.954 59.5l-2.88-.185"/><path stroke="#BEC0BF" stroke-miterlimit="10" stroke-width=".8" d="m66.95 60.21-9.357-.603"/><path stroke="#494949" stroke-miterlimit="10" stroke-width="1.6" d="m71.652 60.514-3.176-.205"/><path fill="#08979D" d="M55.026 30.562 6.996 27.46a3.016 3.016 0 0 0-3.204 2.816L-.742 100.48a3.016 3.016 0 0 0 2.815 3.204l48.03 3.102a3.016 3.016 0 0 0 3.204-2.815l4.535-70.205a3.016 3.016 0 0 0-2.816-3.204"/><path fill="#D3DFFF" d="m40.32 32.98-19.05-1.23-.207 3.199 19.05 1.23z"/><path fill="#DADADA" d="M51.907 41.836 8.64 39.042l-.62 9.595 43.267 2.795z"/><path fill="#fff" d="m49.929 43.025-39.48-2.55-.45 6.971 39.48 2.55z"/><path fill="#6EC6CA" d="m39.715 55.153-2.94-.19a1.6 1.6 0 0 0-1.7 1.494l-.044.68a1.6 1.6 0 0 0 1.494 1.7l2.94.19a1.6 1.6 0 0 0 1.7-1.494l.045-.68a1.6 1.6 0 0 0-1.495-1.7M49.402 55.778l-2.94-.19a1.6 1.6 0 0 0-1.7 1.495l-.045.68a1.6 1.6 0 0 0 1.495 1.7l2.94.19a1.6 1.6 0 0 0 1.7-1.495l.044-.679a1.6 1.6 0 0 0-1.494-1.7M49.685 64.39l-5.904-.381a.763.763 0 0 0-.81.712l-.229 3.536a.763.763 0 0 0 .712.81l5.904.382a.763.763 0 0 0 .81-.712l.229-3.537a.763.763 0 0 0-.712-.81M37.837 63.625l-5.904-.381a.763.763 0 0 0-.81.712l-.229 3.537a.763.763 0 0 0 .712.81l5.904.381a.763.763 0 0 0 .81-.712l.229-3.537a.763.763 0 0 0-.712-.81M25.989 62.86l-5.904-.382a.763.763 0 0 0-.81.712l-.228 3.537a.763.763 0 0 0 .711.81l5.904.382a.763.763 0 0 0 .81-.712l.229-3.537a.763.763 0 0 0-.712-.81M14.141 62.094l-5.904-.38a.763.763 0 0 0-.81.711L7.2 65.962a.763.763 0 0 0 .712.81l5.904.381a.763.763 0 0 0 .81-.712l.228-3.536a.763.763 0 0 0-.712-.81M49.094 73.538l-5.904-.381a.763.763 0 0 0-.81.712l-.228 3.537a.763.763 0 0 0 .712.81l5.904.381a.763.763 0 0 0 .81-.712l.228-3.537a.763.763 0 0 0-.712-.81"/><path fill="#FBEEDD" d="m37.246 72.773-5.904-.381a.763.763 0 0 0-.81.712l-.229 3.537a.763.763 0 0 0 .712.81l5.904.381a.763.763 0 0 0 .81-.712l.229-3.537a.763.763 0 0 0-.712-.81M25.398 72.009l-5.904-.382a.763.763 0 0 0-.81.712l-.228 3.537a.763.763 0 0 0 .712.81l5.904.382a.763.763 0 0 0 .81-.712l.228-3.537a.763.763 0 0 0-.712-.81M13.55 71.243l-5.903-.381a.763.763 0 0 0-.81.712l-.229 3.537a.763.763 0 0 0 .712.81l5.904.381a.763.763 0 0 0 .81-.712l.228-3.537a.763.763 0 0 0-.711-.81"/><path fill="#6EC6CA" d="m48.503 82.687-5.904-.381a.763.763 0 0 0-.81.712l-.228 3.537a.763.763 0 0 0 .712.81l5.903.381a.763.763 0 0 0 .81-.712l.229-3.537a.763.763 0 0 0-.712-.81"/><path fill="#FBEEDD" d="m36.655 81.922-5.904-.381a.763.763 0 0 0-.81.712l-.229 3.537a.763.763 0 0 0 .712.81l5.904.381a.763.763 0 0 0 .81-.712l.229-3.537a.763.763 0 0 0-.712-.81M24.807 81.157l-5.903-.381a.763.763 0 0 0-.81.712l-.229 3.537a.763.763 0 0 0 .712.81l5.904.381a.763.763 0 0 0 .81-.712l.228-3.537a.763.763 0 0 0-.712-.81M12.96 80.392l-5.904-.381a.763.763 0 0 0-.81.712l-.229 3.536a.763.763 0 0 0 .712.81l5.904.382a.763.763 0 0 0 .81-.712l.229-3.537a.763.763 0 0 0-.712-.81"/><path fill="#FBC343" d="m47.891 92.16-5.904-.382a.763.763 0 0 0-.81.712l-.228 3.537a.763.763 0 0 0 .712.81l5.904.382a.763.763 0 0 0 .81-.712l.228-3.537a.763.763 0 0 0-.712-.81"/><path fill="#FBEEDD" d="m36.043 91.395-5.904-.382a.763.763 0 0 0-.81.712l-.228 3.537a.763.763 0 0 0 .712.81l5.904.382a.763.763 0 0 0 .81-.712l.228-3.537a.763.763 0 0 0-.712-.81M24.196 90.63l-5.904-.382a.763.763 0 0 0-.81.712l-.229 3.537a.763.763 0 0 0 .712.81l5.904.381a.763.763 0 0 0 .81-.712l.228-3.537a.763.763 0 0 0-.712-.81M12.348 89.864l-5.904-.382a.763.763 0 0 0-.81.712l-.229 3.537a.763.763 0 0 0 .712.81l5.904.382a.763.763 0 0 0 .81-.712l.229-3.537a.763.763 0 0 0-.712-.81"/><path fill="#F35647" d="M41.005 47.536c.114.02.247.016.427.01a1.47 1.47 0 0 0 .84-.326c.274-.218.482-.547.584-1.005h-.017a1.15 1.15 0 0 1-.945.36c-.703-.046-1.119-.603-1.076-1.27.048-.738.624-1.351 1.422-1.3.799.052 1.249.732 1.184 1.728-.055.858-.382 1.44-.79 1.787-.32.275-.745.428-1.168.45a2.5 2.5 0 0 1-.488-.002zm.337-2.232c-.03.485.241.847.697.876.354.023.642-.133.795-.358a.34.34 0 0 0 .06-.19c.043-.665-.17-1.192-.722-1.227-.45-.03-.794.346-.83.898M44.086 47.735c.113.02.246.016.427.01a1.47 1.47 0 0 0 .84-.326c.273-.217.482-.547.584-1.005h-.018a1.15 1.15 0 0 1-.945.36c-.703-.045-1.118-.602-1.075-1.269.047-.738.623-1.352 1.422-1.3.798.051 1.248.731 1.184 1.727-.056.858-.383 1.44-.79 1.788-.32.275-.746.428-1.168.449a2.5 2.5 0 0 1-.489-.002zm.337-2.232c-.032.486.24.847.696.877.354.022.642-.134.795-.36a.34.34 0 0 0 .06-.188c.043-.666-.17-1.192-.722-1.228-.45-.03-.794.346-.83.899"/></g><defs><filter id="b" width="25.382" height="24.06" x="73.499" y="28.827" color-interpolation-filters="sRGB" filterUnits="userSpaceOnUse"><feFlood flood-opacity="0" result="BackgroundImageFix"/><feColorMatrix in="SourceAlpha" result="hardAlpha" values="0 0 0 0 0 0 0 0 0 0 0 0 0 0 0 0 0 0 127 0"/><feOffset dx="3.093" dy="1.768"/><feColorMatrix values="0 0 0 0 0 0 0 0 0 0 0 0 0 0 0 0 0 0 0.15 0"/><feBlend in2="BackgroundImageFix" result="effect1_dropShadow_6275_29362"/><feBlend in="SourceGraphic" in2="effect1_dropShadow_6275_29362" result="shape"/></filter><filter id="c" width="20.128" height="18.805" x="76.503" y="42.058" color-interpolation-filters="sRGB" filterUnits="userSpaceOnUse"><feFlood flood-opacity="0" result="BackgroundImageFix"/><feColorMatrix in="SourceAlpha" result="hardAlpha" values="0 0 0 0 0 0 0 0 0 0 0 0 0 0 0 0 0 0 127 0"/><feOffset dx="3.093" dy="1.768"/><feColorMatrix values="0 0 0 0 0 0 0 0 0 0 0 0 0 0 0 0 0 0 0.15 0"/><feBlend in2="BackgroundImageFix" result="effect1_dropShadow_6275_29362"/><feBlend in="SourceGraphic" in2="effect1_dropShadow_6275_29362" result="shape"/></filter><filter id="d" width="13.345" height="12.019" x="72.518" y="52.297" color-interpolation-filters="sRGB" filterUnits="userSpaceOnUse"><feFlood flood-opacity="0" result="BackgroundImageFix"/><feColorMatrix in="SourceAlpha" result="hardAlpha" values="0 0 0 0 0 0 0 0 0 0 0 0 0 0 0 0 0 0 127 0"/><feOffset dx="3.093" dy="1.768"/><feColorMatrix values="0 0 0 0 0 0 0 0 0 0 0 0 0 0 0 0 0 0 0.15 0"/><feBlend in2="BackgroundImageFix" result="effect1_dropShadow_6275_29362"/><feBlend in="SourceGraphic" in2="effect1_dropShadow_6275_29362" result="shape"/></filter><clipPath id="a"><path fill="#fff" d="M.381 0h100v79.997h-100z"/></clipPath></defs></svg>