<svg width="20" height="20" viewBox="0 0 20 20" fill="none"
    xmlns="http://www.w3.org/2000/svg">
    <g id="Bag">
        <g id="Vector">
            <path fill-rule="evenodd" clip-rule="evenodd" d="M10.0007 3.375C9.2715 3.375 8.6804 3.9661 8.6804 4.69526V9.05116C8.6804 9.53441 8.28865 9.92616 7.8054 9.92616C7.32215 9.92616 6.9304 9.53441 6.9304 9.05116V4.69526C6.9304 2.9996 8.305 1.625 10.0007 1.625C11.6963 1.625 13.0709 2.9996 13.0709 4.69526V9.05116C13.0709 9.53441 12.6792 9.92616 12.1959 9.92616C11.7127 9.92616 11.3209 9.53441 11.3209 9.05116V4.69526C11.3209 3.9661 10.7298 3.375 10.0007 3.375Z" fill="#181A1F"></path>
            <path fill-rule="evenodd" clip-rule="evenodd" d="M4.02077 6.91469C4.07325 6.47464 4.44644 6.14331 4.88961 6.14331H15.1098C15.5529 6.14331 15.9261 6.47464 15.9786 6.91469L16.4809 11.1268C16.6189 12.2834 16.73 13.2155 16.7455 13.9686C16.7614 14.7433 16.6811 15.4314 16.3619 16.0634C16.0333 16.7144 15.541 17.2688 14.9335 17.6723C14.3437 18.064 13.67 18.2253 12.8989 18.3012C12.1492 18.375 11.2105 18.375 10.0458 18.375H9.9536C8.78883 18.375 7.85015 18.375 7.10044 18.3012C6.32935 18.2253 5.65566 18.064 5.06585 17.6723C4.45835 17.2688 3.96612 16.7144 3.63742 16.0634C3.31831 15.4314 3.23793 14.7433 3.25386 13.9686C3.26934 13.2155 3.38051 12.2834 3.51845 11.1268L4.02077 6.91469ZM5.66647 7.89331L5.26159 11.2883C5.11693 12.5014 5.01699 13.3478 5.00349 14.0046C4.99022 14.6499 5.06527 15.0086 5.1996 15.2747C5.39161 15.655 5.67915 15.9788 6.03403 16.2145C6.2823 16.3794 6.62959 16.4964 7.2719 16.5596C7.92574 16.624 8.77803 16.625 9.99969 16.625C11.2213 16.625 12.0736 16.624 12.7275 16.5596C13.3698 16.4964 13.7171 16.3794 13.9653 16.2145C14.3202 15.9788 14.6078 15.655 14.7998 15.2747C14.9341 15.0086 15.0092 14.6499 14.9959 14.0046C14.9824 13.3478 14.8824 12.5014 14.7378 11.2883L14.3329 7.89331H5.66647Z" fill="#181A1F"></path>
        </g>
    </g>
</svg>