<!DOCTYPE svg PUBLIC "-//W3C//DTD SVG 1.1//EN" "http://www.w3.org/Graphics/SVG/1.1/DTD/svg11.dtd">

<!-- Uploaded to: SVG Repo, www.svgrepo.com, Transformed by: SVG Repo Mixer Tools -->
<svg width="30px" height="30px" viewBox="0 0 24.00 24.00" fill="none"
    xmlns="http://www.w3.org/2000/svg" stroke="" stroke-width="0.00024000000000000003">

    <g id="SVGRepo_bgCarrier" stroke-width="0" transform="translate(0,0), scale(1)">

        <rect x="0" y="0" width="24.00" height="24.00" rx="12" fill="#DEF9EC" strokewidth="0"/>

    </g>

    <g id="SVGRepo_tracerCarrier" stroke-linecap="round" stroke-linejoin="round" stroke="#1C274CCCCCCC" stroke-width="0.048"/>

    <g id="SVGRepo_iconCarrier">
        <path d="M10.0303 8.96965C9.73741 8.67676 9.26253 8.67676 8.96964 8.96965C8.67675 9.26255 8.67675 9.73742 8.96964 10.0303L10.9393 12L8.96966 13.9697C8.67677 14.2625 8.67677 14.7374 8.96966 15.0303C9.26255 15.3232 9.73743 15.3232 10.0303 15.0303L12 13.0607L13.9696 15.0303C14.2625 15.3232 14.7374 15.3232 15.0303 15.0303C15.3232 14.7374 15.3232 14.2625 15.0303 13.9696L13.0606 12L15.0303 10.0303C15.3232 9.73744 15.3232 9.26257 15.0303 8.96968C14.7374 8.67678 14.2625 8.67678 13.9696 8.96968L12 10.9393L10.0303 8.96965Z" fill="#1C274C"/>
    </g>

</svg>