<svg xmlns="http://www.w3.org/2000/svg" width="32" height="32" fill="none" viewBox="0 0 32 32"><path fill="#009DA5" d="m6.3 20.542-1.633 3.085c0 4.474 5.623 5.986 11.126 5.986 5.866 0 11.368-2.66 11.368-5.986l-1.632-3.085-5.926-3.023-3.81 4.052-3.144-4.052z"/><mask id="a" width="24" height="28" x="4" y="2" maskUnits="userSpaceOnUse" style="mask-type:luminance"><path fill="#fff" fill-rule="evenodd" d="M4.48 2.845h22.915v26.578H4.48z" clip-rule="evenodd"/></mask><g fill-rule="evenodd" clip-rule="evenodd" mask="url(#a)"><path fill="#fff" d="M20.32 27.043a.773.773 0 0 1 0 1.544.773.773 0 0 1 0-1.544m-4.406-5.96-2.986-3.305a4 4 0 0 1 .238-.367l.475-.228c.63.557 1.428.865 2.277.865.886 0 1.72-.336 2.362-.943l.644.311c.039.041.072.087.11.13zm1.93-6.058v1.588a2.785 2.785 0 0 1-3.853 0v-1.576a4.8 4.8 0 0 0 1.911.406c.685 0 1.338-.152 1.942-.418m-6.75-5.881c0-.139.01-.275.018-.411a10.1 10.1 0 0 0 2.945-2.345 10.24 10.24 0 0 0 6.613 3.46c-.298 2.779-2.32 4.937-4.768 4.937-2.651 0-4.808-2.53-4.808-5.641m1.8-4.395q.335.587.74 1.12a9.7 9.7 0 0 1-2.424 2.056c.24-1.274.847-2.386 1.685-3.176m3.008-1.247c2.652 0 4.81 2.531 4.81 5.642q-.002.023-.003.048a9.58 9.58 0 0 1-7.297-4.865c.728-.52 1.579-.825 2.49-.825m-1.07 24.838a.1.1 0 0 1-.081.022.11.11 0 1 1 .08-.022m-3.478.229a.11.11 0 0 1 .177.1.1.1 0 0 1-.041.072.11.11 0 0 1-.08.023.11.11 0 0 1-.097-.122.1.1 0 0 1 .041-.073m16.014-5.319-.87-2.032a3.2 3.2 0 0 0-1.553-1.624l-5.627-2.717a4.7 4.7 0 0 0-.817-.658v-1.535c1.706-1.067 2.867-3.15 2.867-5.54 0-3.474-2.452-6.3-5.466-6.3-1.156 0-2.228.42-3.112 1.128-.023.017-.047.033-.063.055-1.385 1.144-2.29 3.009-2.29 5.117 0 2.405 1.176 4.498 2.9 5.559 0 .007-.004.013-.004.02v1.542q-.332.287-.6.626L6.89 19.712a3.2 3.2 0 0 0-1.552 1.624l-.831 1.94a.329.329 0 1 0 .604.258l.83-1.939a2.55 2.55 0 0 1 1.235-1.29l4.944-2.388c-.327.773-.42 1.656-.266 2.577l.264 1.574a2.864 2.864 0 0 0-2.375 2.526l-.232 2.311a2.02 2.02 0 0 0 1.209 2.052.75.75 0 0 0 .704.466.763.763 0 0 0 .76-.676.764.764 0 0 0-1.408-.501 1.36 1.36 0 0 1-.61-1.275l.232-2.311a2.2 2.2 0 0 1 1.83-1.939l.011.07a.329.329 0 0 0 .649-.108l-.004-.02a2.2 2.2 0 0 1 2.073 1.506l.718 2.21c.16.492.024 1.02-.329 1.378a.77.77 0 0 0-1.057-.107.769.769 0 0 0 .948 1.207c.127-.099.213-.23.258-.372a2.02 2.02 0 0 0 .806-2.31l-.719-2.21a2.865 2.865 0 0 0-2.809-1.964l-.27-1.616a4.06 4.06 0 0 1 .127-1.956l3.29 3.642 3.508-3.98c.362.604.564 1.3.564 2.034v6.303c-.63.15-1.1.713-1.1 1.388 0 .788.64 1.429 1.429 1.429.788 0 1.43-.641 1.43-1.43a1.43 1.43 0 0 0-1.102-1.387v-6.303a4.6 4.6 0 0 0-.513-2.123l4.523 2.184c.553.267.992.726 1.234 1.29l.871 2.033a.328.328 0 1 0 .604-.259"/><path fill="#FFD488" d="M20.32 27.044a.773.773 0 1 1-.772.772c.001-.426.347-.772.773-.772"/><path fill="#fff" d="M14.832 28.34a.1.1 0 0 1-.081.022.11.11 0 1 1 .08-.022M11.355 28.569a.11.11 0 0 1 .176.1.1.1 0 0 1-.04.072h-.001a.11.11 0 0 1-.08.023.11.11 0 0 1-.056-.195"/><path fill="#009DA5" d="m15.914 21.084-2.987-3.306q.11-.19.24-.366l.474-.23c.63.559 1.428.866 2.277.866.886 0 1.72-.336 2.362-.943l.644.311c.039.042.072.087.109.13z"/><path fill="#FFD488" d="M17.844 15.024v1.589a2.785 2.785 0 0 1-3.853 0v-1.576a4.8 4.8 0 0 0 1.911.406c.685 0 1.338-.153 1.942-.419M11.094 9.143c0-.138.01-.274.018-.41a10.1 10.1 0 0 0 2.945-2.345 10.24 10.24 0 0 0 6.613 3.46c-.298 2.779-2.32 4.937-4.768 4.937-2.651 0-4.808-2.53-4.808-5.642"/><path fill="#009DA5" d="M12.895 4.749q.334.586.74 1.12a9.7 9.7 0 0 1-2.425 2.056c.24-1.274.847-2.386 1.685-3.176M15.902 3.502c2.652 0 4.81 2.531 4.81 5.641l-.003.048a9.58 9.58 0 0 1-7.297-4.864c.728-.52 1.579-.825 2.49-.825"/></g></svg>