<svg xmlns="http://www.w3.org/2000/svg" width="32" height="32" fill="none" viewBox="0 0 32 32"><path fill="#009DA5" d="M3.925 21.164h16.069c.25 0 .49.017.668.049.177.031.277.074.277.119v2.525H3.925c-.251 0-.491-.017-.669-.049-.177-.032-.277-.074-.277-.119v-2.357c0-.045.1-.088.277-.12.178-.03.418-.049.669-.049"/><path fill="#009DA5" stroke="#009DA5" stroke-width=".898" d="m26.791 17.24.04.15.124.092 1.437 1.077a.45.45 0 0 1 .18.36v4.04a.45.45 0 0 1-.45.45H20.49V12.632h4.702a.45.45 0 0 1 .433.33l.433-.118-.433.118z"/><path fill="#009DA5" stroke="#fff" stroke-width=".898" d="M10.163 24.306a2.245 2.245 0 1 1-4.49 0 2.245 2.245 0 0 1 4.49 0ZM26.327 24.306a2.245 2.245 0 1 1-4.49 0 2.245 2.245 0 0 1 4.49 0Z"/><path fill="#fff" d="M7.918 25.204a.898.898 0 1 0 0-1.796.898.898 0 0 0 0 1.796M24.082 25.204a.898.898 0 1 0 0-1.796.898.898 0 0 0 0 1.796"/><path fill="#009DA5" stroke="#fff" stroke-width=".898" d="M27.224 17.123h.643l-.22-.604-1.417-3.873a1.26 1.26 0 0 0-.454-.654 1.3 1.3 0 0 0-.773-.257h-2.718v4.122c0 .338.137.66.377.897s.565.368.902.368z"/><g clip-path="url(#a)"><path fill="#009DA5" d="M4.73 19.25c0 .45.3.75.75.75h5.25V9.25h-6zM12.23 20h5.25c.45 0 .75-.3.75-.75V11.5l-6-2.25z"/><path fill="#009DA5" d="M3.98 9.5V11c0 .45.3.75.75.75h6v-3h-6c-.45 0-.75.3-.75.75M18.23 8.75h-6v3h6c.45 0 .75-.3.75-.75V9.5c0-.45-.3-.75-.75-.75"/><path fill="#FFD488" d="m8.18 8-.226-.225c-.3-.3-.3-.75 0-1.05A.8.8 0 0 1 8.48 6.5a.68.68 0 0 1 .525.225L10.28 8h2.325l1.275-1.275c.3-.3.75-.3 1.05 0s.3.75 0 1.05L14.78 8h1.8c.3-.825.075-1.725-.525-2.325-.9-.9-2.325-.9-3.15 0l-1.425 1.35-1.35-1.35c-.9-.9-2.325-.9-3.225 0-.6.6-.825 1.5-.525 2.325zM9.98 8.755h3V20h-3z"/></g><defs><clipPath id="a"><path fill="#fff" d="M3.98 5h15v15h-15z"/></clipPath></defs></svg>