<svg width="20" height="20" viewBox="0 0 24 24" fill="none"
    xmlns="http://www.w3.org/2000/svg">
    <mask id="mask0_2456_25927" style="mask-type:alpha" maskUnits="userSpaceOnUse" x="0" y="0" width="20" height="20">
        <rect width="20" height="20" fill="#D9D9D9"></rect>
    </mask>
    <g mask="url(#mask0_2456_25927)">
        <path d="M10.05 13.9484L3.57495 11.3234C3.35828 11.2401 3.19995 11.1109 3.09995 10.9359C2.99995 10.7609 2.94995 10.5818 2.94995 10.3984C2.94995 10.2151 3.00412 10.0359 3.11245 9.86094C3.22078 9.68594 3.38328 9.55677 3.59995 9.47344L18.95 3.77344C19.15 3.6901 19.3416 3.67344 19.525 3.72344C19.7083 3.77344 19.8666 3.8651 20 3.99844C20.1333 4.13177 20.225 4.2901 20.275 4.47344C20.325 4.65677 20.3083 4.84844 20.225 5.04844L14.525 20.3984C14.4416 20.6151 14.3125 20.7776 14.1375 20.8859C13.9625 20.9943 13.7833 21.0484 13.6 21.0484C13.4166 21.0484 13.2375 20.9984 13.0625 20.8984C12.8875 20.7984 12.7583 20.6401 12.675 20.4234L10.05 13.9484Z" fill="#FF6F61"></path>
    </g>
</svg>