<svg xmlns="http://www.w3.org/2000/svg" width="32" height="32" fill="none" viewBox="0 0 32 32"><path fill="#009DA5" stroke="#FFD488" stroke-width="1.5" d="m25.289 15.732-.103.269.103.268.948 2.475-2.057 1.666-.223.181-.045.284-.417 2.62-2.619.416-.284.045-.18.224-1.668 2.058-2.475-.949-.269-.103-.268.103-2.475.948-1.668-2.058-.18-.223-.285-.045-2.618-.416-.416-2.62-.045-.284-.224-.18-2.058-1.667.949-2.475.103-.268-.103-.269-.949-2.474 2.058-1.668.224-.181.045-.284.416-2.618 2.618-.416.284-.046.181-.223 1.668-2.058 2.475.948.268.103.269-.103 2.476-.95L20.41 7.82l.18.224.285.045 2.62.417.416 2.617.045.284.223.181 2.058 1.669zm-1.8 7.807Zm.05-.052Zm-15.078 0ZM23.488 8.46Zm2.785 4.825Z"/><path fill="#fff" d="M14 14.75c-1.103 0-2-.84-2-1.874S12.897 11 14 11s2 .841 2 1.875-.898 1.875-2 1.875m0-2.5c-.368 0-.667.28-.667.626 0 .345.299.625.667.625s.666-.28.666-.625-.298-.625-.666-.625M17.999 21c-1.103 0-2-.841-2-1.875s.897-1.875 2-1.875 2 .841 2 1.875S19.1 21 17.999 21m0-2.5c-.367 0-.667.281-.667.625s.3.625.667.625c.366 0 .666-.281.666-.625s-.3-.625-.666-.625M12.666 21a.7.7 0 0 1-.386-.116.6.6 0 0 1-.155-.873l6.666-8.75a.695.695 0 0 1 .93-.144.6.6 0 0 1 .155.871l-6.666 8.75a.68.68 0 0 1-.544.262"/></svg>