<svg xmlns="http://www.w3.org/2000/svg" width="90" height="90" fill="none"><path fill="#6EC6CA" d="M6.591 17.997h-3.18V14.58H.002v-3.166h3.41V7.997h3.17v3.418h3.42v3.166H6.59zm-2.718-.451H6.14v-3.415h3.42v-2.266H6.14V8.447H3.873v3.418H.45v2.265h3.422zM24.591 17.997h-3.18V14.58h-3.41v-3.166h3.41V7.997h3.17v3.418h3.42v3.166h-3.41zm-2.718-.451h2.267v-3.415h3.42v-2.266h-3.42V8.447h-2.267v3.418H18.45v2.265h3.422zM42.591 17.997h-3.18V14.58h-3.41v-3.166h3.41V7.997h3.17v3.418h3.42v3.166h-3.41zm-2.718-.451h2.267v-3.415h3.42v-2.266h-3.42V8.447h-2.267v3.418H36.45v2.265h3.422zM60.591 17.997h-3.18V14.58h-3.41v-3.166h3.41V7.997h3.17v3.418h3.42v3.166h-3.41zm-2.718-.451h2.267v-3.415h3.42v-2.266h-3.42V8.447h-2.267v3.418H54.45v2.265h3.422zM82 11.412v3.166h-3.415v3.419h-3.167v-3.418H72v-3.167h3.418V7.997h3.167v3.415zM24.591 35.997h-3.18V32.58h-3.41v-3.166h3.41v-3.418h3.17v3.418h3.42v3.166h-3.41zm-2.718-.451h2.267V32.13h3.42v-2.265h-3.42v-3.418h-2.267v3.418H18.45v2.265h3.422zM42.591 35.997h-3.18V32.58h-3.41v-3.166h3.41v-3.418h3.17v3.418h3.42v3.166h-3.41zm-2.718-.451h2.267V32.13h3.42v-2.265h-3.42v-3.418h-2.267v3.418H36.45v2.265h3.422zM60.591 35.997h-3.18V32.58h-3.41v-3.166h3.41v-3.418h3.17v3.418h3.42v3.166h-3.41zm-2.718-.451h2.267V32.13h3.42v-2.265h-3.42v-3.418h-2.267v3.418H54.45v2.265h3.422zM78.585 35.997h-3.17V32.58H72v-3.166h3.416v-3.418h3.169v3.418H82v3.166h-3.415zm-2.716-.451h2.265V32.13h3.416v-2.265h-3.416v-3.413H75.87v3.418H72.45v2.265h3.418zM42.591 53.997h-3.18V50.58h-3.41v-3.166h3.41v-3.418h3.17v3.418h3.42v3.166h-3.41zm-2.718-.451h2.267V50.13h3.42v-2.265h-3.42v-3.418h-2.267v3.418H36.45v2.265h3.422zM60.591 53.997h-3.18V50.58h-3.41v-3.166h3.41v-3.418h3.17v3.418h3.42v3.166h-3.41zm-2.718-.451h2.267V50.13h3.42v-2.265h-3.42v-3.418h-2.267v3.418H54.45v2.265h3.422zM78.591 53.997h-3.18V50.58h-3.41v-3.166h3.41v-3.418h3.17v3.418h3.42v3.166h-3.41zm-2.718-.451h2.267V50.13h3.42v-2.265h-3.42v-3.418h-2.267v3.418H72.45v2.265h3.422zM60.591 71.997h-3.18V68.58h-3.41v-3.166h3.41v-3.418h3.17v3.418h3.42v3.166h-3.41zm-2.718-.451h2.267V68.13h3.42v-2.265h-3.42v-3.418h-2.267v3.418H54.45v2.266h3.422zM78.591 71.997h-3.18V68.58h-3.41v-3.166h3.41v-3.418h3.17v3.418h3.42v3.166h-3.41zm-2.718-.451h2.267V68.13h3.42v-2.265h-3.42v-3.418h-2.267v3.418H72.45v2.266h3.422zM78.591 89.997h-3.18V86.58h-3.41v-3.166h3.41v-3.418h3.17v3.418h3.42v3.166h-3.41zm-2.718-.451h2.267V86.13h3.42v-2.265h-3.42v-3.418h-2.267v3.418H72.45v2.266h3.422z"/></svg>