<svg xmlns="http://www.w3.org/2000/svg" width="32" height="32" fill="none" viewBox="0 0 32 32"><path fill="#009DA5" d="M17.537 16.09 7.892 10.5l-.307 11.304 9.952 5.099zM17.628 5.086l9.726 5.05-9.726 5.892-9.82-5.892z"/><path fill="#009DA5" d="M27.487 21.856V10.43l-10.023 5.55v10.708z"/><path fill="#fff" d="M27.677 10.106c-.15-.263-.42-.432-.906-.685-.122-.064-.26-.135-.42-.224l-7.82-4.039a2.13 2.13 0 0 0-1.875 0l-7.808 4.03c-.762.38-1.168.604-1.389.934v.019c-.208.339-.227.793-.227 1.635v8.435c0 1.437.054 1.805 1.514 2.602l7.792 4.029c.298.147.627.22.96.214.356-.007.707-.08 1.036-.218l9.464-6.01a.32.32 0 0 0-.291-.57l-9.438 5.985q-.22.092-.458.131l.042-10.201 4.454-2.592v2.774a.32.32 0 1 0 .64 0V13.22l4.253-2.467q.047.517.032 1.037v8.874a.32.32 0 1 0 .64 0v-8.874c-.013-.909-.032-1.363-.195-1.683M16.96 5.73a1.48 1.48 0 0 1 1.28 0l7.805 4.023.425.224q.204.099.394.224l-4.234 2.464-8.928-5.264zM9.024 22.246c-1.174-.64-1.174-.72-1.174-2.035V11.79a5.3 5.3 0 0 1 .05-1.011l9.313 5.404-.042 10.205a1.4 1.4 0 0 1-.345-.118zm8.509-6.617L8.256 10.24q.423-.277.883-.486l3.891-2.007 8.96 5.283z"/><path fill="#009DA5" d="m6.618 9.629-2.02-1.194a.32.32 0 0 0-.32.554l2.023 1.193a.32.32 0 0 0 .354-.024.32.32 0 0 0-.03-.53zM6.237 14l-3.235-1.949a.32.32 0 0 0-.32.55l3.235 1.946a.3.3 0 0 0 .163.048.32.32 0 0 0 .316-.275.32.32 0 0 0-.16-.32"/><path fill="#FFD488" d="m26.013 20.24 2.65.345a.345.345 0 0 1 .177.592l-1.944 1.926.389 2.65a.357.357 0 0 1-.508.375l-2.354-1.206-2.398 1.325a.332.332 0 0 1-.49-.357l.503-2.703-1.86-1.86a.354.354 0 0 1 .204-.596l2.65-.442 1.24-2.45a.345.345 0 0 1 .619 0z"/><path fill="#fff" d="M21.76 26.723a.67.67 0 0 1-.64-.803l.506-2.634-1.837-1.824a.67.67 0 0 1-.163-.688.69.69 0 0 1 .534-.48l2.62-.428 1.22-2.42a.688.688 0 0 1 .99-.28.67.67 0 0 1 .242.277l1.104 2.362 2.586.32a.66.66 0 0 1 .544.448.7.7 0 0 1-.176.717l-1.92 1.9.384 2.624a.7.7 0 0 1-.638.798.7.7 0 0 1-.36-.074L24.46 25.34l-2.355 1.28a.7.7 0 0 1-.346.102m2.858-9.017c-.02 0-.03 0-.042.028l-1.37 2.708-2.95.483a.06.06 0 0 0-.045.041v.042l2.08 2.064-.57 2.97v.035a.04.04 0 0 0 .036 0l2.669-1.437 2.598 1.357a.04.04 0 0 0 .038 0 .06.06 0 0 0 .03-.058l-.433-2.963 2.167-2.128a.06.06 0 0 0 0-.058l-2.938-.396-1.248-2.679z"/></svg>