<svg width="20" height="20" viewBox="0 0 16 16" fill="none"
    xmlns="http://www.w3.org/2000/svg">
    <g id="Frame 1116605302">
        <g id="Vector">
            <path fill-rule="evenodd" clip-rule="evenodd" d="M7.32929 4.05747C5.14087 4.05747 3.3668 5.83154 3.3668 8.01997C3.3668 10.2084 5.14087 11.9825 7.32929 11.9825C9.51772 11.9825 11.2918 10.2084 11.2918 8.01997C11.2918 5.83154 9.51772 4.05747 7.32929 4.05747ZM1.9668 8.01997C1.9668 5.05834 4.36767 2.65747 7.32929 2.65747C10.2909 2.65747 12.6918 5.05834 12.6918 8.01997C12.6918 10.9816 10.2909 13.3825 7.32929 13.3825C4.36767 13.3825 1.9668 10.9816 1.9668 8.01997Z" fill="#181A1F"></path>
            <path fill-rule="evenodd" clip-rule="evenodd" d="M10.2041 10.8092C10.4775 10.5358 10.9207 10.5358 11.1941 10.8092L13.1431 12.7582C13.4164 13.0315 13.4164 13.4748 13.1431 13.7481C12.8697 14.0215 12.4265 14.0215 12.1531 13.7481L10.2041 11.7991C9.93076 11.5258 9.93076 11.0826 10.2041 10.8092Z" fill="#181A1F"></path>
        </g>
    </g>
</svg>