<svg xmlns="http://www.w3.org/2000/svg" width="104" height="24" fill="none"><path fill="#000" d="M75.118 5.684v1.314c.034 0 .068 0 .068-.035.576-.817 1.356-1.28 2.272-1.528.983-.284 1.933-.213 2.883.142.712.249 1.254.746 1.661 1.386.034.07.102.142.17.284.034-.071.068-.142.102-.178.678-.923 1.56-1.527 2.645-1.705 1.085-.213 2.17-.106 3.154.426 1.255.64 1.967 1.705 2.17 3.162.068.355.068.746.068 1.101v8.241999999999999h-3.56v-7.176c0-.284-.035-.533-.069-.817-.17-.782-.644-1.315-1.424-1.457-.712-.106-1.39 0-1.9.64q-.507.639-.508 1.492v7.282h-3.629v-7.175000000000001c0-.356-.034-.711-.135-1.031-.305-.817-.848-1.172-1.56-1.243-.272-.036-.577 0-.848.07-.746.25-1.153.818-1.323 1.6-.034.177-.034.39-.034.603v7.176H71.66V5.684zM100.451 6.857V5.684h3.527v11.509c0 1.421-.339 2.736-1.017 3.98-.712 1.278-1.73 2.095-3.052 2.486a7.9 7.9 0 0 1-4.715-.036c-1.22-.39-2.204-1.172-2.95-2.273a4.3 4.3 0 0 1-.644-1.528c0-.07-.034-.106-.034-.177 0-.036 0-.107-.034-.178 1.085-.32 2.136-.64 3.222-.96a.7.7 0 0 1 .067.25c.306 1.03 1.188 1.847 2.408 1.882.441 0 .882-.035 1.29-.177.915-.355 1.457-1.102 1.695-2.06.135-.605.169-1.244.135-1.883l-.034-.036h-.033c-.51.675-1.187 1.03-2.001 1.172-1.052.178-2.103.178-3.087-.248-1.763-.71-2.916-2.025-3.425-3.872-.475-1.705-.373-3.375.441-4.938.678-1.35 1.696-2.38 3.12-2.877a5.65 5.65 0 0 1 3.256-.107c.746.178 1.356.604 1.865 1.244m-5.222 4.724v.39c.101 1.031.61 1.813 1.526 2.203.373.178.814.213 1.22.178 1.154-.071 1.967-.782 2.239-1.776.135-.427.169-.888.135-1.35-.135-1.705-1.661-2.877-3.391-2.31-1.085.392-1.73 1.386-1.73 2.665M71.59 3.943V0h32.354c.068.178.068 3.41.034 3.908-.204.07-31.81.106-32.387.035M66.232 23.906v-3.943h24.079v3.943zM69.997 18.258h-3.798V5.79h-3.73v-2.7h.304c1.086-.071 2.035-.39 2.883-1.137.543-.461.882-1.065 1.051-1.776 0-.035.034-.106.034-.142h3.256zM29.47 19.501h-5.29c-.237 0-.339-.071-.407-.284-.915-2.771-1.831-5.506-2.713-8.277-.034-.106-.068-.213-.136-.39-.101.319-.203.532-.27.78-.849 2.594-1.697 5.223-2.544 7.816-.068.248-.17.32-.407.32h-5.257000000000001c.17-.427.306-.853.441-1.28 1.628-4.475 3.256-8.951 4.85-13.391.101-.249.203-.356.475-.356h5.358c.237 0 .339.072.44.32 1.764 4.796 3.561 9.627 5.359 14.422.068.107.068.213.102.32M57.686 19.501h-5.324c-.238 0-.34-.071-.407-.284-.916-2.771-1.832-5.506-2.713-8.277-.034-.106-.068-.213-.136-.39-.068.177-.102.319-.136.426-.881 2.735-1.797 5.434-2.679 8.17-.068.248-.17.355-.44.355h-5.1899999999999995c.035-.142.068-.249.102-.355 1.73-4.796 3.493-9.591 5.223-14.387.102-.248.203-.32.475-.32h5.392c.203 0 .305.072.407.285 1.797 4.83 3.595 9.697 5.392 14.528 0 .071 0 .142.034.249M42.087 4.51v4.405h-3.968v10.62h-5.766V8.95H28.25V4.545c4.578-.035 9.19-.035 13.837-.035M0 4.51h13.87v4.405H9.904v10.62h-5.8V8.95H0z"/></svg>