<svg xmlns="http://www.w3.org/2000/svg" width="48" height="48" fill="none"><path fill="#000" fill-rule="evenodd" d="M.867 33.023h11.347v3.52H8.959V45H4.231v-8.457H.867zM17.96 37.863 15.571 45h-4.54l4.453-11.977h4.93L24.975 45H20.38zM23.891 33.023h11.347v3.52h-3.254V45h-4.729v-8.457h-3.364zM40.985 37.863 38.596 45h-4.54l4.453-11.977h4.93L48 45h-4.595zM41.076 11.04a10.7 10.7 0 0 0-1.67-2.417c-1.554-1.709-3.747-3.132-6.342-4.112C30.45 3.522 27.466 3 24.434 3c-3.031 0-6.015.522-8.63 1.511-2.596.98-4.787 2.403-6.34 4.112a10.7 10.7 0 0 0-1.67 2.419c3.377-.833 9.154-1.93 14.519-2.048.517-.012.873.157 1.108.46.286.369.264 1.685.256 2.273l-.152 15.21q.454.016.91.016t.916-.016l-.153-15.21c-.008-.588-.03-1.904.257-2.273.234-.303.59-.472 1.108-.46 5.362.115 11.137 1.214 14.515 2.046" clip-rule="evenodd"/><path fill="#000" fill-rule="evenodd" d="M41.795 13.017c-4.943-1.14-8.242-1.35-11.501-1.534-2.84-.16-2.876.872-2.592 2.848.017.12.04.272.068.445A171 171 0 0 0 30.11 26.31c6.923-1.612 11.914-6.082 11.914-11.332a8.5 8.5 0 0 0-.231-1.96M21.17 14.332c.283-1.975.247-3.008-2.592-2.847-3.259.187-6.56.395-11.505 1.534a8.5 8.5 0 0 0-.23 1.958c0 2.27.905 4.467 2.62 6.352 1.553 1.709 3.746 3.13 6.34 4.11q1.447.54 2.953.878c.192-.787 1.405-5.838 2.369-11.689l.045-.3" clip-rule="evenodd"/></svg>