<!DOCTYPE svg PUBLIC "-//W3C//DTD SVG 1.1//EN" "http://www.w3.org/Graphics/SVG/1.1/DTD/svg11.dtd">

<!-- Uploaded to: SVG Repo, www.svgrepo.com, Transformed by: SVG Repo Mixer Tools -->
<svg fill="#ffff" height="30px" width="30px" version="1.1" id="Icons" xmlns="http://www.w3.org/2000/svg" xmlns:xlink="http://www.w3.org/1999/xlink" viewBox="-19.2 -19.2 70.40 70.40" xml:space="preserve" stroke="#ffff">

<g id="SVGRepo_bgCarrier" stroke-width="0">

<rect x="-19.2" y="-19.2" width="70.40" height="70.40" rx="35.2" fill="#ff6f61" strokewidth="0"/>

</g>

<g id="SVGRepo_tracerCarrier" stroke-linecap="round" stroke-linejoin="round"/>

<g id="SVGRepo_iconCarrier"> <path d="M31.4,8.6c-0.2-1.6-1.6-3-3.3-3.1c-9.8-0.7-14.6-0.7-24.3,0C2.2,5.6,0.8,7,0.6,8.6c-0.8,5.9-0.8,8.9,0,14.8 c0.2,1.6,1.7,3,3.3,3.1C8.7,26.8,12.4,27,16,27s7.3-0.2,12.2-0.5c1.6-0.1,3-1.5,3.3-3.1C32.2,17.5,32.2,14.5,31.4,8.6z M21.1,17.7 l-6,4C14.8,21.9,14.4,22,14,22c-0.3,0-0.7-0.1-0.9-0.2c-0.7-0.4-1.1-1-1.1-1.8V12c0-0.8,0.4-1.4,1.1-1.8c0.7-0.4,1.4-0.3,2.1,0.1 l6,4c0.6,0.4,0.9,1,0.9,1.7S21.7,17.3,21.1,17.7z"/> </g>

</svg>