<svg xmlns="http://www.w3.org/2000/svg" width="108" height="24" fill="none"><path fill="#903E38" d="M4.154 3a3 3 0 0 1 3-3h92.034c2.181 0 3.634 2.255 2.731 4.241l-8.18 18A3 3 0 0 1 91.01 24H7.154a3 3 0 0 1-3-3z"/><path fill="#fff" d="M19.929 13.536a4.1 4.1 0 0 1-.86 2.094q-.717.906-1.869 1.399a6.1 6.1 0 0 1-2.486.46q-1.203-.023-2.095-.515a3.6 3.6 0 0 1-1.41-1.438q-.51-.945-.576-2.171-.06-.962.209-2.391.275-1.43.967-2.54.701-1.109 1.661-1.757 1.351-.906 3.088-.875 1.886.03 2.987 1.094 1.11 1.055 1.218 2.937l-2.436-.008q0-1.077-.46-1.578-.457-.5-1.426-.53-1.253-.04-2.061.835-.801.875-1.077 2.555-.267 1.632-.234 2.445.042 1.031.493 1.524.45.484 1.26.507 1.117.039 1.786-.492.675-.54.893-1.539zM26.741 17.333a2.1 2.1 0 0 1-.092-.765q-1.017.952-2.303.922-1.184-.015-1.97-.72-.776-.71-.725-1.75.058-1.382 1.235-2.116 1.185-.743 3.17-.743l1.102.016.117-.508q.05-.258.025-.492a.8.8 0 0 0-.3-.57q-.25-.21-.668-.219-.55-.016-.934.258-.384.266-.493.773l-2.361.008q.059-1.21 1.185-1.96 1.134-.758 2.795-.743 1.536.03 2.403.86.869.82.726 2.117l-.692 4.046-.042.5q-.017.555.142.938l-.008.148zm-1.81-1.554q1.017.03 1.777-.828L27 13.49l-.818-.008q-1.302.03-1.878.742-.209.258-.258.633-.068.422.183.672.259.241.701.25M37.392 10.997a5 5 0 0 0-.793-.078q-1.26-.03-1.994.883l-1.043 5.531h-2.354l1.57-8.453 2.21-.008-.216 1.032q.85-1.196 2.102-1.196.351 0 .818.11zM42.185 17.49q-1.186-.008-2.103-.54a3.4 3.4 0 0 1-1.36-1.468q-.452-.938-.351-2.063l.025-.312q.125-1.234.768-2.266a4.46 4.46 0 0 1 1.652-1.586 4.3 4.3 0 0 1 2.236-.531q1.744.03 2.637 1.203.902 1.164.684 2.953l-.133.961h-5.533q-.033.82.426 1.313.459.492 1.252.507 1.285.032 2.253-.93l1.076 1.25q-.509.72-1.468 1.126a5.1 5.1 0 0 1-2.062.383m.75-6.946q-.65-.015-1.16.383-.5.399-.9 1.383h3.237l.05-.203a2 2 0 0 0 .008-.594 1.1 1.1 0 0 0-.408-.703q-.326-.258-.827-.266M55.934 13.326l-.751 4.007h-2.445l2.111-11.375 4.256.008q1.97 0 3.096 1.024 1.126 1.023.984 2.671-.133 1.673-1.493 2.672-1.352 1-3.455 1zm.342-1.899 2.036.016q.985 0 1.636-.477.65-.476.776-1.289.125-.813-.284-1.297-.4-.485-1.193-.515l-2.303-.008zM66.568 17.333h-2.37l2.228-12h2.362zM74.507 17.333a2.1 2.1 0 0 1-.092-.765q-1.019.952-2.303.922-1.185-.015-1.97-.72-.776-.71-.726-1.75.059-1.382 1.235-2.116 1.185-.743 3.171-.743l1.102.016.117-.508q.05-.258.025-.492a.8.8 0 0 0-.3-.57q-.251-.21-.668-.219-.55-.016-.935.258-.384.266-.492.773l-2.362.008q.06-1.21 1.185-1.96 1.135-.758 2.796-.743 1.534.03 2.403.86.868.82.726 2.117l-.693 4.046-.041.5q-.017.555.141.938l-.008.148zm-1.811-1.554q1.017.03 1.777-.828l.292-1.461-.817-.008q-1.302.03-1.878.742-.209.258-.259.633-.066.422.184.672.258.241.7.25M82.696 8.872l-.2 1q1.085-1.18 2.628-1.148 1.277.024 1.886.875.609.852.442 2.36l-.951 5.374h-2.353l.968-5.398q.041-.304.016-.555-.108-.797-1.068-.82-.925-.032-1.66.805l-1.127 5.968h-2.353l1.569-8.453z"/></svg>