<svg xmlns="http://www.w3.org/2000/svg" width="328" height="280" fill="none"><g clip-path="url(#a)"><path fill="#385C4A" d="M262.394 234.77c-1.977-3.444-2.203-7.605-2.751-11.557-1.536-10.938-5.952-21.27-11.389-30.806 3.664.717 7.554 1.722 10.014 4.603 1.558 1.821 2.342 4.183 3.406 6.346 2.052 4.173 5.201 7.727 6.931 12.043 3.019 7.583 1.214 16.291 2.944 24.283.601-2.296 2.417-4.062 4.405-5.287 1.988-1.226 4.191-2.009 6.243-3.113 2.439-1.302 4.663-3.046 7.253-4.007 4.405-1.644 9.337-.85 13.774.696-4.394 1.843-8.843 3.719-12.603 6.689-1.032.816-2.02 1.721-3.148 2.384-1.107.662-2.332 1.081-3.45 1.733-1.923 1.115-3.481 2.892-4.373 4.967a1.3 1.3 0 0 0-.129.441c-.01.276.14.53.269.773a8.13 8.13 0 0 1 .946 4.338l-26.368-.1c-1.193-.187-1.161-2.13-1.902-3.101-.57-.74-1.429-1.159-2.267-1.523-2.826-1.237-5.77-2.241-8.779-2.892-6.253-1.358-12.765-1.226-19.072-.111 3.933-5.64 10.208-9.481 16.913-10.342.859-.111 1.751-.177 2.6 0 1.235.265 2.31 1.037 3.384 1.733 2.73 1.788 5.674 3.201 8.682 4.437 1.655.673 3.428 1.302 5.179 1.004s3.439-1.832 3.31-3.664c-.033-.486.365-.342.01 0z"/><path fill="#1F262E" d="M256.366 249.217h26.293s-3.17-3.962-12.088-4.735-11.411-1.325-14.205 4.735"/><path fill="#613D34" d="M278.49 280.003h-21.92c-1.762 0-3.277-1.399-3.588-3.307l-4.169-25.511c-.172-1.02.548-1.956 1.482-1.956h34.47c.935 0 1.655.936 1.483 1.956l-4.169 25.511c-.312 1.92-1.827 3.307-3.589 3.307"/><path stroke="#3B251F" stroke-linecap="round" stroke-linejoin="round" stroke-width="1.591" d="M252.928 254.102h25.583"/><path fill="#3B251F" d="M284.195 250.785c-.795-.42-1.493-.994-2.202-1.568h-9.359a3.8 3.8 0 0 1 .526.574c.366.53.581 1.17.957 1.689.784 1.082 2.149 1.501 3.32 2.097 1.429.729 2.665 1.799 3.879 2.848 1.192 1.027 2.396 2.097 3.406 3.311l1.429-8.157c-.666-.242-1.332-.474-1.956-.805zM252.724 273.313c.096-.045.193-.1.3-.144 1.397-.651 2.783-1.391 3.912-2.483 2.353-2.285 3.234-5.696 4.018-8.919l1.128-4.647c.269-1.104.548-2.23 1.064-3.234 1.064-2.042 3.019-3.389 4.911-4.658h-14.108c-1.419.971-2.558 2.406-3.299 4.007-.43.927-.731 1.909-.946 2.914l3.009 17.164z"/><path fill="#2A403D" d="M268.648 248.997c-1.021-1.843-2.3-3.885-4.331-4.227-1.396-.232-2.825.441-3.825 1.468-.999 1.026-1.644 2.362-2.192 3.697a39.2 39.2 0 0 0-2.396 8.698c-.247 1.656-.397 3.333-.892 4.923-.816 2.638-2.525 4.879-4.233 7.02-2.568 3.234-5.276 6.468-8.768 8.609.774-1.136 1.547-2.306 1.977-3.631s.462-2.837-.204-4.04c-1.128-2.031-3.718-2.539-5.534-3.951a6.65 6.65 0 0 1-2.224-3.245c-.666-2.142-.204-4.537.849-6.513s2.665-3.565 4.373-4.978a36.8 36.8 0 0 1 14.119-7.252c.14-3.455-.72-6.909-1.762-10.199-.946-2.991-1.988-6.148-4.309-8.19-1.751-1.545-4.029-2.285-5.985-3.543-2.525-1.644-4.47-4.216-5.394-7.13-.472-1.49-.687-3.058-1.096-4.57-1.203-4.459-4.169-8.378-8.069-10.673 5.706-2.087 12.486-.685 16.955 3.51 1.612 1.512 2.923 3.322 4.556 4.812 1.547 1.413 3.374 2.506 4.857 3.996 2.417 2.406 3.804 5.662 5.147 8.841 1.751 4.15 3.492 8.3 5.243 12.462 1.021 2.428 2.074 4.989 1.88 7.627.667-2.991.935-6.071.785-9.139-.194-4.084-1.128-8.146-.828-12.23.42-5.63 3.116-10.773 5.813-15.696 2.461-4.493 4.986-8.996 8.295-12.87 3.31-3.875 7.5-7.12 12.357-8.444a55.1 55.1 0 0 0-.258 18.687c.441 2.781 1.085 5.64.387 8.367-.419 1.655-1.322 3.123-2.278 4.525-6.425 9.404-16.203 16.612-20.061 27.396 4.212-2.384 9.381-2.859 14.184-3.135.505-.033 1.02-.055 1.493.144.43.176.763.529 1.096.872 2.89 3.035 5.813 6.104 7.919 9.746 4.309 7.417 4.878 16.612 3.406 25.122-3.61-5.132-7.231-10.265-10.841-15.398-1.806-2.571-3.664-5.187-6.211-6.976-2.213-1.556-4.9-2.428-6.801-4.371-1.225-1.247-2.429-3.035-4.137-2.803-1.3.165-2.439 1.556-3.095 2.726z"/><path fill="#1F262E" d="M258.161 244.659a63 63 0 0 1 3.75-.817c.891-.165 1.783-.32 2.686-.264.902.055 1.816.331 2.503.938 1.086.96 1.419 2.516 1.677 3.962.107-1.258-.312-2.494-.731-3.675-.161-.464-.333-.938-.634-1.314-.43-.53-1.085-.794-1.719-.993a10.6 10.6 0 0 0-3.224-.442c-.655.011-1.375.067-1.901-.32-.71-.53-.753-1.6-1.279-2.307-.57-.75-1.612-1.004-2.149-1.777-.591-.861-.365-2.108-.946-2.98-.462-.695-1.31-.982-1.88-1.578-.301-.32-.516-.718-.795-1.071-.43-.541-.989-.927-1.601-1.225.698 1.446 1.214 3.024 1.698 4.569 1.031 3.268 1.88 6.678 1.762 10.111.945-.497 1.751-.563 2.783-.817M291.953 254.362c.613.806.999 1.778 1.376 2.727.902 2.296 1.805 4.58 2.707 6.876l-1.966-7.516c-.183-.696-.365-1.402-.741-2.009-.613-.994-1.655-1.612-2.45-2.473-.538-.574-.957-1.258-1.548-1.766-.848-.728-1.977-1.048-2.782-1.821-1.15-1.093-1.419-2.848-2.354-4.128-1.031-1.435-2.761-2.142-4.018-3.367-.129-.121-.247-.254-.376-.375q-1.016.149-2.031.364c.097.033.183.055.236.077a13.3 13.3 0 0 1 2.622 1.457 14 14 0 0 1 3.202 3.157c.194.265.806.927.806 1.259.516.894.956 1.898 1.784 2.494.569.409 1.267.596 1.794 1.049.387.331.645.783.956 1.181.817 1.048 1.967 1.766 2.772 2.814zM252.756 246.37c-.398.132-.795.264-1.193.419-.129.287-.247.574-.365.861a9.1 9.1 0 0 1-1.128 1.932c-.473.607-1.021 1.159-1.526 1.733-.795.916-1.494 1.92-2.181 2.913-.763 1.104-1.537 2.263-1.666 3.61-.043.441 0 .905.161 1.313.119.298.301.563.452.861.139.287.236.585.322.894.817 2.66 1.429 5.442 1.161 8.224.816-2.495.193-5.221-.398-7.782-.107-.486-.226-.982-.247-1.479-.032-.585.054-1.17.172-1.744a15 15 0 0 1 1.171-3.455c.58-1.225 1.322-2.351 2.063-3.477l2.654-4.051c.172-.254.344-.508.526-.761z"/><path fill="#FFD488" fill-rule="evenodd" d="M145.606.139C204.728-2.5 262.096 33.62 279.077 91.855c16.022 54.94-21.169 105.772-65.855 140.152-47.448 36.506-110.265 68.297-157.823 31.943-46.636-35.648-31.045-105.246-11.78-161.586C61.022 51.469 93.144 2.48 145.606.139" clip-rule="evenodd"/><g clip-path="url(#b)"><rect width="39.192" height="40.26" x="39.749" y="118.935" fill="#fff" rx="19.596"/><path fill="#FF9534" d="M73.94 131.697c-.187-.328-.523-.54-1.131-.856-.152-.08-.324-.168-.524-.28l-9.776-5.048a2.66 2.66 0 0 0-2.344 0l-9.76 5.036c-.952.476-1.46.756-1.736 1.168v.024c-.26.424-.284.992-.284 2.044v10.544c0 1.796.068 2.256 1.892 3.252l9.74 5.036c.373.184.784.276 1.2.268a3.5 3.5 0 0 0 1.296-.272l11.83-7.513a.401.401 0 0 0-.064-.73.4.4 0 0 0-.3.018l-11.798 7.481a2.6 2.6 0 0 1-.572.164l.052-12.752 5.568-3.24v3.468a.4.4 0 0 0 .8 0v-3.92l5.316-3.084q.06.647.04 1.296v11.092a.4.4 0 0 0 .8 0v-11.092c-.016-1.136-.04-1.704-.244-2.104m-13.395-5.468a1.85 1.85 0 0 1 1.6 0l9.756 5.028.532.28q.255.124.492.28l-5.292 3.08-11.16-6.58zm-9.92 20.644c-1.468-.8-1.468-.9-1.468-2.544v-10.528q-.03-.635.064-1.264l11.64 6.756-.052 12.756a1.8 1.8 0 0 1-.432-.148zm10.636-8.272-11.596-6.736q.528-.347 1.104-.608l4.864-2.508 11.2 6.604zM47.617 131.101l-2.524-1.492a.403.403 0 0 0-.532.154.4.4 0 0 0 .132.538l2.528 1.492a.4.4 0 0 0 .442-.03.4.4 0 0 0-.038-.662zM47.14 136.565l-4.043-2.436a.4.4 0 0 0-.4.688l4.044 2.432a.4.4 0 0 0 .204.06.4.4 0 0 0 .344-.196.4.4 0 0 0-.03-.445.4.4 0 0 0-.118-.103"/><path fill="#FF9534" d="m71.861 144.366 3.312.431a.429.429 0 0 1 .22.739l-2.428 2.407.486 3.313a.447.447 0 0 1-.635.469l-2.942-1.507-2.998 1.656a.41.41 0 0 1-.453-.023.42.42 0 0 1-.16-.424l.63-3.379-2.325-2.324a.44.44 0 0 1-.102-.451.44.44 0 0 1 .356-.294l3.313-.552 1.55-3.064a.43.43 0 0 1 .774 0z"/></g><rect width="39.192" height="40.26" x="80.819" y="41.267" fill="#fff" rx="19.596"/><mask id="c" width="22" height="25" x="89" y="49" maskUnits="userSpaceOnUse" style="mask-type:alpha"><path fill="#3B3B3B" fill-rule="evenodd" d="M95.97 63.659c-3.503-.438-6.222-3.404-6.222-6.986v-5.59c0-.98.797-1.777 1.778-1.777h2.268a.888.888 0 1 1 0 1.778h-2.268v5.589c0 2.903 2.398 5.264 5.344 5.264s5.342-2.361 5.342-5.264v-5.59h-2.224a.89.89 0 0 1 0-1.777h2.224c.982 0 1.778.796 1.778 1.778v5.589c0 3.588-2.729 6.559-6.241 6.988v3.97a4.44 4.44 0 0 0 4.433 4.433 4.44 4.44 0 0 0 4.434-4.434v-.022a3.17 3.17 0 0 1-2.28-3.043 3.173 3.173 0 0 1 3.169-3.168 3.173 3.173 0 0 1 3.168 3.168c0 1.44-.964 2.658-2.279 3.043v.022a6.22 6.22 0 0 1-6.212 6.212 6.22 6.22 0 0 1-6.211-6.212zm11.535-.484c-.768 0-1.392.624-1.392 1.39a1.392 1.392 0 1 0 1.392-1.39" clip-rule="evenodd"/></mask><g mask="url(#c)"><path fill="#FF9534" d="M87.971 48.953h24.889v24.889H87.971z"/></g><rect width="39.192" height="40.26" x="192.923" y="42.274" fill="#fff" rx="19.596"/><path fill="#FF9534" fill-rule="evenodd" d="M220.465 71.622a4.95 4.95 0 0 1-6.99 0 4.9 4.9 0 0 1-1.358-2.606l9.71.001a4.9 4.9 0 0 1-1.362 2.605m-9.71-.925a3.59 3.59 0 0 1-3.373 2.372h-.005c-1.95-.004-3.554-1.591-3.577-3.53l.009-5.5 7.166.011-.002 1.115a6.7 6.7 0 0 0-.712 2.912c-.002.018-.011.032-.011.05 0 .017.009.032.011.048a6.7 6.7 0 0 0 .501 2.514zm-5.134-18.312a3.58 3.58 0 0 1 3.585.007 3.59 3.59 0 0 1 1.785 3.107l-.012 6.773-7.166-.01.01-6.777a3.6 3.6 0 0 1 1.798-3.1M216.97 63.19a4.926 4.926 0 0 1 4.857 4.05l-9.71-.002a4.9 4.9 0 0 1 1.358-2.605 4.92 4.92 0 0 1 3.495-1.443m4.752.187c-2.448-2.45-6.327-2.577-8.967-.438l.014-7.436a5.38 5.38 0 0 0-2.67-4.651 5.38 5.38 0 0 0-5.364-.009 5.38 5.38 0 0 0-2.69 4.638l-.012 7.659-.002.007.002.009-.011 6.391c.034 2.92 2.434 5.296 5.351 5.3h.011a5.36 5.36 0 0 0 4.464-2.422c.126.15.229.313.37.454a6.7 6.7 0 0 0 4.752 1.964 6.7 6.7 0 0 0 4.752-1.964 6.726 6.726 0 0 0 0-9.503" clip-rule="evenodd"/><rect width="39.192" height="40.26" x="230.087" y="118.915" fill="#fff" rx="19.596"/><path fill="#3B3B3B" fill-rule="evenodd" d="M233.683 155.045h32v-32h-32z" clip-rule="evenodd" opacity=".01"/><path fill="#FF9534" fill-rule="evenodd" d="M246.434 143.182a.9.9 0 0 1-.629-.259.89.89 0 0 1 0-1.259l6.457-6.455a.885.885 0 0 1 1.257 0 .887.887 0 0 1 0 1.257l-6.455 6.457a.9.9 0 0 1-.63.259M252.349 143.489a1.663 1.663 0 1 1 .001-3.325 1.663 1.663 0 0 1-.001 3.325M246.959 138.099a1.663 1.663 0 1 1 1.662-1.664c0 .917-.745 1.664-1.662 1.664" clip-rule="evenodd"/><path fill="#FF9534" fill-rule="evenodd" d="M245.995 147.062a.89.89 0 0 1 .837.59c.528 1.485 1.819 2.013 2.852 2.013 1.031 0 2.324-.528 2.852-2.013a.88.88 0 0 1 .496-.522.87.87 0 0 1 .721.019c1.423.676 2.711.134 3.44-.593.729-.731 1.27-2.018.594-3.44a.88.88 0 0 1-.019-.722.88.88 0 0 1 .522-.496c1.485-.528 2.013-1.821 2.013-2.854 0-1.032-.528-2.323-2.013-2.851a.887.887 0 0 1-.503-1.22c.676-1.422.135-2.707-.594-3.438-.73-.732-2.019-1.271-3.44-.594a.88.88 0 0 1-.721.018.88.88 0 0 1-.496-.523c-.528-1.484-1.821-2.01-2.852-2.01-1.033 0-2.324.526-2.852 2.01a.88.88 0 0 1-.497.523.9.9 0 0 1-.722-.018c-1.421-.675-2.709-.137-3.438.594-.731.731-1.27 2.016-.594 3.438a.89.89 0 0 1-.507 1.22c-1.482.528-2.01 1.819-2.01 2.851s.528 2.326 2.01 2.854a.89.89 0 0 1 .507 1.218c-.676 1.422-.137 2.709.594 3.44.727.727 2.016 1.267 3.438.593a.9.9 0 0 1 .382-.087m3.689 4.381a4.75 4.75 0 0 1-4.151-2.377 4.75 4.75 0 0 1-4.615-1.254c-1.241-1.24-1.694-2.979-1.255-4.616-1.469-.847-2.377-2.395-2.377-4.152 0-1.754.908-3.303 2.377-4.151-.439-1.637.014-3.374 1.255-4.615a4.75 4.75 0 0 1 4.615-1.253c.848-1.469 2.396-2.377 4.151-2.377s3.303.908 4.149 2.377c1.636-.441 3.376.011 4.617 1.253 1.239 1.241 1.693 2.978 1.254 4.615a4.75 4.75 0 0 1 2.376 4.151c0 1.755-.91 3.305-2.376 4.152.439 1.637-.015 3.376-1.254 4.616a4.75 4.75 0 0 1-4.617 1.254c-.846 1.466-2.394 2.377-4.149 2.377" clip-rule="evenodd"/><path fill="#385C4A" d="M92.32 252.683H60.881c-.881-2.252-1.483-4.824-2.353-7.076-.236-.596-.484-1.225-.967-1.644-.591-.508-1.397-.618-2.138-.817-4.6-1.192-8.188-6.303-12.883-5.596 4.255-2.958 10.1-3.289 14.656-.839 2.45 1.314 4.49 3.344 6.984 4.581-2.407-3.864-4.879-7.804-8.295-10.762-.957-.839-1.988-1.59-2.848-2.528-1.321-1.446-2.16-3.278-2.912-5.11a71.3 71.3 0 0 1-4.942-20.078c2.718 1.843 5.437 3.698 8.155 5.541 1.988 1.346 3.986 2.715 5.62 4.503 6.661 7.307 5.308 19.283 10.659 27.65a56.84 56.84 0 0 1-.441-26.579c3.105 3.985 4.889 9.04 5.007 14.139.064 2.903-.355 6.005.978 8.566a118 118 0 0 1 8.263-10.365c1.063-1.192 2.16-2.373 3.438-3.322 2.6-1.932 5.802-2.793 8.961-3.367 6.071-1.115 12.26-1.302 18.417-1.457a20.2 20.2 0 0 0-6.178 4.415c-1.204 1.27-2.257 2.694-3.589 3.82-1.698 1.434-3.772 2.306-5.738 3.311a45 45 0 0 0-13.291 10.309c3.567-.949 7.532-.165 10.497 2.086 1.021.773 1.913 1.7 2.923 2.495 1.612 1.269 3.503 2.163 5.018 3.554 4.04 3.709 4.523 9.912 4.738 15.475-.032-1.965-1.375-3.631-2.761-4.989a33.4 33.4 0 0 0-9.391-6.468c-1.558-.718-2.923-.729-4.115.53z"/><path fill="#1F262E" d="M61.698 252.11h29.215s-2.73-5.045-8.016-5.354-8.993 1.402-8.993 1.402-7.188-6.203-12.206 3.963z"/><path fill="#613D34" d="M87.27 280.003H65.35c-1.761 0-3.276-1.303-3.588-3.08l-4.17-23.753c-.171-.95.549-1.822 1.484-1.822h34.47c.934 0 1.654.872 1.482 1.822l-4.17 23.753c-.31 1.788-1.826 3.08-3.588 3.08"/><path fill="#3B251F" d="M95.028 253.157c.172-.949-.548-1.821-1.483-1.821H81.081c0 3.046-.601 6.126-.053 9.117.247 1.347.72 2.638 1.268 3.896a34.7 34.7 0 0 0 6.285 9.636c.742.795 1.526 1.568 2.418 2.186l4.04-23.014zM67.274 252.009c.118-.221.237-.452.355-.673h-8.553c-.935 0-1.655.872-1.483 1.821l3.234 18.422a20 20 0 0 0 2.02-2.318c1.397-1.92 2.278-4.249 2.407-6.655.15-2.76-.58-5.696.591-8.191.398-.849.989-1.589 1.44-2.406z"/><path stroke="#3B251F" stroke-linecap="round" stroke-linejoin="round" stroke-width="1.591" d="M61.698 255.885h29.215"/><path fill="#2A403D" d="M83.24 244.063c1.656-.232 3.332 0 4.987.221 1.88.254 3.75.508 5.63.761 1 .133 2.02.265 2.998.045.956-.221 1.805-.762 2.718-1.115 2.095-.795 4.427-.541 6.608-.055a33.6 33.6 0 0 1 8.553 3.201 83 83 0 0 0-5.061-6.767c-3.116-3.741-6.726-7.307-11.26-8.94-2.3-.828-4.76-1.126-7.2-1.126-.837 0-1.697.033-2.47.375-1.58.696-2.386 2.451-3.364 3.908-2.546 3.786-7.038 6.059-9.112 10.154.892-6.302 1.88-12.859 5.416-18.091 2.095-3.101 5.157-5.938 5.372-9.713.076-1.28-.204-2.561-.408-3.83-1.365-8.422.451-17.34 4.975-24.504a205 205 0 0 0-13.216 15.089c-2.224 2.803-4.47 5.949-4.545 9.558-.043 2.098.655 4.162.505 6.259-.269 3.576-3.331 6.678-3.492 10.265a65.7 65.7 0 0 0 .558 11.987c-1.214-1.678-2.18-3.609-3.223-5.386-.473-.806-.956-1.623-1.279-2.506-.59-1.645-.601-3.499-1.44-5.033-.945-1.733-2.76-2.738-4.029-4.239-1.117-1.324-1.783-3.002-2.847-4.371-2.063-2.66-5.416-3.94-7.661-6.446 1.569 5.42 3.148 10.839 4.717 16.259.505 1.733 1.031 3.51 2.106 4.934.848 1.115 1.998 1.954 2.954 2.98.817.861 1.516 1.877 2.504 2.528.784.519 1.708.761 2.557 1.159a8.35 8.35 0 0 1 2.955 2.307c.118.143.226.287.333.43-1.472-.629-3.277-.221-4.91.055-3.406.574-6.92.431-10.261-.43-.484-.122-1.021-.254-1.44 0-.344.21-.516.607-.656.982-.43 1.104-.827 2.208-1.225 3.323a934 934 0 0 0-1.826 5.11c-.538 1.49-1.075 3.002-1.268 4.57-.247 1.92.021 3.874.28 5.784.708 5.143 1.407 10.287 2.116 15.43 3.503-5.53 7.006-11.048 10.508-16.578.387-.607.774-1.226 1.01-1.91.398-1.181.301-2.483.495-3.72.472-3.035 2.621-5.463 4.663-7.704.634-.695 1.31-1.413 2.203-1.7 1.074-.342 2.235.011 3.245.508a13 13 0 0 1 4.308 3.388c.742-2.604 3.825-4.304 6.404-3.719.656.154 1.311.452 1.73.993.484.629.591 1.49.634 2.296.118 2.185-.032 4.393.365 6.545.44 2.429 1.548 4.669 2.751 6.822 1.171 2.086 2.46 4.15 4.212 5.739 3.514 3.179 8.789 4.371 11.164 8.522 1.934-7.109 1.031-14.979-2.45-21.436-1.29-2.395-2.933-4.746-3.449-7.417-.28-1.468-1.493-2.605-2.847-3.168s-2.837-.662-4.288-.751c-3.879-.242-7.843-.474-11.615.519 1-1.38 2.654-2.119 4.309-2.351"/><path fill="#1F262E" d="M75.902 249.538c.065.187.118.364.172.552a1.6 1.6 0 0 0-.172-.552"/><path fill="#1F262E" d="M75.902 249.537c-.258-.794-.58-1.589-1.15-2.185-.333-.353-.741-.629-1.139-.894a94 94 0 0 0-3.588-2.274c-.613-.364-1.247-.717-1.913-.949.236.221.451.463.656.717.118.144.225.287.333.431-.58-.243-1.215-.331-1.87-.331.161.055.322.088.484.121.687.11 1.407.166 2.03.497.699.364 1.322.872 1.934 1.368a88 88 0 0 1 2.912 2.44c.118.11.247.22.387.298.107.066.236.099.355.165.257.133.462.354.601.618zM78.943 246.414c1-1.38 2.654-2.119 4.308-2.351.355-.055.72-.067 1.075-.078-1.322-.419-2.74-.805-4.019-.298-.934.376-1.633 1.17-2.439 1.778-.268.198-.558.386-.784.64-.42.474-.58 1.137-.634 1.766-.043.507-.193 1.324-.054 1.81.656-.993.85-2.141 1.913-2.87.225-.154.473-.276.709-.408-.022 0-.032 0-.054.011zM91.354 250.465c.354 1.28.43 2.627.612 3.951.473 3.378 1.751 6.678 3.943 9.239.516.607 1.085 1.159 1.57 1.788 1.256 1.623 1.922 3.632 2.567 5.596.151-2.881-.741-5.806-2.46-8.079-.634-.828-1.365-1.579-1.935-2.462-.462-.728-.805-1.534-1.138-2.329-.806-1.92-1.612-3.863-1.935-5.927-.182-1.181-.215-2.428-.73-3.499-.376-.773-1.547-1.976-2.45-1.534.215.518.806.894 1.128 1.379.376.563.634 1.215.817 1.866zM56.906 247.971c-.58 1.435-1.128 2.87-1.655 4.327-.516 1.424-1.02 2.903-.967 4.415.022.53.107 1.071.054 1.601-.075.772-.452 1.479-.752 2.196-1.204 2.848-1.365 6.027-1.515 9.128a26.35 26.35 0 0 1 2.707-10.375c.172-.353.355-.707.43-1.093.086-.43.022-.872 0-1.313-.14-1.8.118-3.621.752-5.31.322-.85.73-1.666 1.064-2.516.215-.552.849-1.91.494-2.462-.268.42-.44.927-.623 1.391zM103.269 238.94c-.3-.32-.623-.629-.999-.85-.709-.408-1.558-.463-2.364-.485-2.063-.033-4.222.099-6.081-.817-.516-.254-.989-.585-1.505-.828-1.01-.486-2.138-.629-3.244-.728-1.354-.111-2.719-.144-4.083-.177q-.549.728-1.161 1.391c1.934-.541 3.857-.74 5.985-.232 1.934.464 3.728 1.413 5.673 1.821 1.462.309 2.966.298 4.46.442.87.088 1.761.232 2.535.651 1.225.673 2.042 1.965 3.202 2.715-.021-.022-.043-.044-.054-.077a25 25 0 0 0-2.374-2.859zM106.203 242.164a3.4 3.4 0 0 1-.516-.288c.14.177.312.343.516.288"/><path fill="#fff" d="m174.799 155.042 12.001-7.057h.074a25.5 25.5 0 0 1 6.072 2.568 34 34 0 0 1 6.035 4.571 47.7 47.7 0 0 1 5.591 6.292 53.3 53.3 0 0 1 4.825 7.681l.058.114-.106.071-.777.543-11.425 7.844-.137.093-.058-.152a43.5 43.5 0 0 0-6.585-11.346 38 38 0 0 0-7.509-7.014 33.5 33.5 0 0 0-5.813-3.323c-.719-.314-1.279-.542-1.665-.667l-.433-.152-.148-.055.153.033.444.13c.391.125.956.326 1.68.625a32.4 32.4 0 0 1 5.898 3.257 37.7 37.7 0 0 1 7.583 7.008 43.4 43.4 0 0 1 6.659 11.4l-.196-.059 11.42-7.856.777-.542-.047.179a53.5 53.5 0 0 0-4.788-7.638 47.5 47.5 0 0 0-5.549-6.265 34 34 0 0 0-5.998-4.56 25.4 25.4 0 0 0-6.009-2.584h.074z"/><path fill="#FAFAFA" d="M199.134 160.059c-.391 2.35-3.287 3.772-6.473 3.175s-5.465-2.985-5.074-5.336 3.287-3.773 6.474-3.176 5.448 2.986 5.073 5.337M200.344 168.082c-.702.331-1.585-.125-1.934-1.015a1.7 1.7 0 0 1-.125-1.229c.113-.412.375-.762.733-.981.703-.331 1.585.125 1.934 1.021a1.7 1.7 0 0 1 .125 1.227c-.113.41-.375.76-.733.977"/><path fill="#80BC98" d="M196.634 177.519c-.724-1.802-1.458-3.595-2.173-5.397-.182-.45-.325-.92-.696-1.253-.658-1.871-1.802-3.438-3.07-4.878-2.861-3.271-6.016-6.219-9.573-8.697-.238-.029-.429-.147-.6-.294-1.364-1.381-3.061-2.233-4.691-3.202-.801-.48-1.592-.98-.925-2.145.096-.128.21-.235.334-.333.925-.617 1.754-1.352 2.689-1.949.572-.372 1.153-.774 1.897-.441.257.186.419.46.572.735.934 2.027 2.088 3.888 3.747 5.367 1.601 1.43 3.413 1.714 4.862.773.439-.509.067-.852-.238-1.214-.992-2.801-2.06-5.563-3.766-8.012-.21-.303-.372-.675-.038-1.038.276-.156.591-.264.82-.47 1.468-1.43 3.098-1.293 4.843-.636 3.318 1.253 6.302 3.055 8.914 5.474 4.624 4.28 8.495 9.197 11.498 14.819.181.333.41.627.62.94.553.304.753.852.953 1.41.077.206.162.412.248.608.153.342.305.695.363 1.077.133.93-.296 1.518-1.04 1.998-4.204 2.693-8.18 5.71-11.993 8.952-.716.607-1.497 1.821-2.651.538-.439-.715-.791-1.479-.963-2.311a.9.9 0 0 1 .086-.441z"/><ellipse cx="149.451" cy="117.422" fill="#fff" rx="19.545" ry="15.67"/><path fill="#3B4044" d="M201.22 259.759c-.2 2.742.429 5.397.706 8.09.41 4.045.934 8.08 1.106 12.154H111.81c-.333-.656-.267-1.381-.267-2.076-.009-4.731-.791-9.392-1.182-14.094-.143-1.674-.334-3.349-.391-5.024-.257-7.532-.772-15.053-.801-22.605-.019-6.013-.658-12.027-.619-18.05 0-.196-.134-.401-.201-.597.067-.715.706-.764 1.154-.931 4.653-1.694 8.152-5.024 11.317-8.716 3.137-3.673 6.13-7.483 9.162-11.244.486-.558.877-1.205 1.335-1.792 3.203-4.104 6.674-7.973 10.068-11.91 3.356-3.898 7.074-7.453 10.125-11.625.982-1.342 2.469-2.224 3.232-3.761 1.64-2.018 3.146-4.153 5.206-5.779.19-.147.39-.284.6-.401 3.242-.833 6.398-1.89 9.334-3.575.715-.411 1.535-.411 2.326-.206 1.383.363 2.803.539 4.214.725 1.593.206 3.185.137 4.481-1.077.382-.255.725-.088 1.021.137 4.461 3.408 8.704 7.052 11.612 12.046.315.539.782 1.097.2 1.763-2.536 1.323-5.253 2.273-7.56 4.075-1.516 1.185-3.118 2.262-4.434 3.682-.848.911-1.782 1.195-3.003.989-3.203-.568-6.416-.558-9.639-.049-1.582.245-3.07.764-4.557 1.362-2.164.862-3.022 2.448-3.032 4.799-.038 7.806 1.201 15.357 4.014 22.624.543 1.391.858 2.791.772 4.29-.152 2.674.2 5.308.382 7.962-.487 1.43-2.174 1.626-2.832 2.89-2.336 3.251-3.137 6.767-1.974 10.724.792 2.693 1.373 5.436 2.756 7.933 2.917 5.279 7.351 8.051 13.119 8.736 4.462.706 8.923 1.558 13.233-.724.381-.196.801-.245 1.23-.186.314.049.6.186.886.333.267.137.525.284.792.401.276.118.553.216.829.314 3.051 1.469 4.805 4.201 6.445 7.032.239.421.372.891.067 1.371z"/><path fill="#3B4044" d="M170.292 109.646c.972-.215 1.926.069 2.812.333 3.366.989 6.827 1.42 10.24 2.145 4.214.891 8.266 2.331 12.194 4.094 8.981 4.045 17.028 9.637 24.626 15.954 2.508 2.086 5.025 4.163 7.303 6.513 2.556 2.625 4.691 5.603 6.941 8.482 4.758 6.082 8.934 12.566 12.299 19.549 4.395 9.128 7.923 18.608 10.144 28.559a76.7 76.7 0 0 1 1.755 20.705c-4.529 1.704-9.229 2.83-13.815 4.348-1.516.5-1.955.157-2.403-1.469-1.087-3.927-1.83-7.943-2.669-11.929-1.812-8.668-3.766-17.316-4.853-26.121a98 98 0 0 1-.486-5.034c-.058-.862-.172-1.694-.477-2.879-.61 2.321.515 4.299-.095 6.248-.754.921-1.345.079-1.888-.264-4.157-2.595-8.152-5.445-12.127-8.315-1.173-1.117-2.565-1.959-3.833-2.938-.525-.372-1.049-.745-1.621-1.048-.82-.676-1.792-.784-2.803-.754-.448-.226-.725-.627-.953-1.058-2.841-5.348-6.579-9.97-10.879-14.133-2.688-2.605-5.806-4.525-9.276-5.827-1.449-.539-2.87-.774-4.167.431-.343.323-.801.548-1.315.411-1.192-.862-1.697-2.262-2.508-3.428-.41-.862-.076-1.773-.152-2.664-.086-2.811-.982-3.829-3.642-4.113-.582-.059-1.154-.167-1.678-.441-.878-.509-1.831-.842-2.756-1.273-4.3-1.979-8.371-1.254-12.289 1.097-5.911 3.545-10.945 8.168-15.645 13.231-.296.314-.534.676-.916.892-2.135.979-3.632 2.83-5.196 4.456-4.328 4.505-9.181 8.364-13.786 12.526-4.09 3.702-8.085 7.503-12.204 11.165-6.359 5.652-12.851 11.156-19.315 16.69-.286.244-.592.46-.763.832 2.05-1.665 4.1-3.31 6.121-5.005 6.969-5.837 13.71-11.958 20.469-18.05 5.015-4.515 10.125-8.913 15.169-13.379.639-.568 1.201-1.234 1.84-1.792.315-.274.639-.666 1.106-.411.362.195.381.646.372 1.018-.038 1.43.19 2.821.543 4.192 1.02 3.927 2.374 7.679 5.349 10.558.658.637 1.334 1.244 2.183 1.587 1.135.46 1.077 1.087.391 1.978-1.545 2.008-3.327 3.8-4.977 5.71-4.49 5.201-9.2 10.205-13.271 15.778a5 5 0 0 1-.239.382c-.104.196-.219.402-.314.607-2.603 3.418-5.511 6.562-8.247 9.863-1.85 2.233-3.89 4.28-6.188 6.033-3.337 2.546-7.227 3.741-11.164 4.819-.296.068-.582.127-.877 0-.458-.412-1.011-.255-1.526-.235-9.82.46-16.436-6.944-18.448-14.643-1.316-5.024-1.935-10.175-1.344-15.337.543-4.789 1.21-9.569 2.316-14.28 1.173-5.014 2.298-10.038 3.9-14.935.658-2.008 1.354-4.006 2.26-5.906 1.992-4.202 3.708-8.531 5.958-12.605 3.928-7.12 9.62-12.331 16.513-16.258 3.003-1.714 6.007-3.448 9.086-5.025 1.754-.901 3.423-1.949 4.786-3.447.315-.353.668-.695 1.154-.842.829.587.772 1.498.763 2.35-.105 11.449 9.686 20.705 20.383 20.509 9.391-.176 15.608-5.211 19.812-13.379 2.117-4.123 2.479-8.589 2.117-13.163-.048-.588-.286-1.185.19-1.704z"/><path fill="#FC987C" d="M166.44 221.219c-.648-2.663-.677-5.386-.582-8.089.058-1.567-.228-2.988-.82-4.417-2.078-5.103-3.079-10.47-3.708-15.945-.258-2.272-.277-4.545-.315-6.827-.038-2.615 1.116-4.231 3.451-5.19 2.241-.921 4.548-1.46 6.932-1.587 2.745-.147 5.51-.176 8.208.499.754.187 1.059-.284 1.469-.695 2.66-2.693 5.653-4.907 9.009-6.591 1.183-.588 2.451-1.009 3.671-1.509.467-.097.686.245.82.578.801 1.93 1.783 3.781 2.221 5.847-1.087 1.45-2.498 2.586-3.727 3.898-1.688 1.812-1.717 1.783.543 2.488 1.049.382 2.164.597 3.137 1.126 1.382.754 2.297.324 3.317-.754 4.729-5.014 10.068-9.226 16.104-12.468.6-.323 1.201-.724 1.935-.538 3.003 3.917 7.293 6.366 10.63 9.902 2.355 2.507 3.804 5.572 4.815 8.883 3.308 10.822 5.835 21.87 9.124 32.692.191.617.391 1.244.315 1.91-.773.901-1.764 1.557-2.47 2.595-.791 1.156-1.401 2.292-1.487 3.693-.057.92-.353 1.684-1.03 2.301-.267.275-.553.539-.81.823-3.499 3.996-6.998 8.002-10.812 11.684-2.183 2.253-4.376 4.496-6.559 6.748-.191.206-.4.412-.524.676-.019 2.596.076 5.191-.811 7.708-1.249 3.545-3.708 5.426-7.255 5.906-1.926.254-3.795-.079-5.587-.784-1.564-.617-2.555-1.861-3.251-3.388-.401-.882-.62-1.852-1.192-2.655-1.325-3.535-3.528-6.307-6.76-8.168-.143-.117-.333-.176-.457-.313-.229-.255-.544-.353-.82-.529a6 6 0 0 0-1.049-.372c-.848-.196-1.525.323-2.25.597-2.097.784-4.252 1.195-6.474 1.068-.867-.049-1.811-.02-2.412-.892-.124-.577.239-.92.601-1.234 7.017-6.121 5.854-16.434.372-22.751-2.679-3.085-5.797-5.367-9.906-5.945-1.058-.147-2.088-.186-3.146-.01-.801.127-1.631.529-2.46.039z"/><path fill="#D47259" d="M175.364 76.944c.229 5.161-.067 10.293-.687 15.406-.324 2.654-1.277 5.103-3.527 6.817-1.411 1.067-2.288 2.634-3.261 4.103-.505-.284-.82.176-1.22.333-.544.304-1.144.431-1.707.686-3.394.989-6.473-.039-9.486-1.518-.772-.431-1.535-.862-2.25-1.391-1.592-1.381-3.556-1.812-5.501-2.302-4.081-1.038-6.684-3.849-8.247-7.678-.515-1.264-1.039-2.165-2.384-2.449-.505-.107-.925-.519-1.42-.715-.649-.137-1.04.294-1.469.666-.533.47-1.01 1.068-1.83 1-.191-.167-.277-.422-.601-.451-3.766-.294-6.521-2.801-7.227-6.68-.753-4.162-.524-8.187 1.898-11.83.086-.128.095-.305.143-.461 1.087-1.362 2.507-1.655 4.09-1.283.963.225 1.897.587 2.774 1.087.477.284.925.617 1.383.92a19.3 19.3 0 0 1 2.908 3.135c.324-1.371.743-2.713 1.477-3.947 1.421-.94 3.089-1.029 4.672-1.332 1.096-.206 1.688.411 1.716 1.557.029 1.518.086 3.016.42 4.505s1.163 2.272 2.602 2.684c2.069.587 4.081-.098 6.121-.03.42.02.83-.02 1.24-.098.257-.02.486.03.686.206-.095 1.332-.782 2.478-1.096 3.741-.439.696-1.221.823-1.859 1.176-1.078.597-2.107 1.243-2.908 2.213-1.23 1.47-1.078 2.34.658 3.095a21.9 21.9 0 0 0 6.74 1.734c4.376.382 8.648-.05 12.614-2.233.877-.48 1.992-.813 2.011-2.047.019-1.293-.772-2.184-1.811-2.87-.944-.627-2.107-.705-3.051-1.332-.782-1.224-1.506-2.468-1.306-4.025a.6.6 0 0 1 .438-.245c.601.039 1.211.078 1.812.03 1.563-.138 3.118-.344 4.681-.47.62-.05 1.249-.246 1.764.313z"/><path fill="#D47259" d="M174 55.123c-.209.352-.181.724-.085 1.106.562 2.282.448 4.643.762 6.964-1.601 1.048-3.47.685-5.205 1.077-.715.157-1.459.216-2.193.323-1.869.275-3.194 1.068-3.261 3.252-.028.823-.524 1.263-1.315 1.352-.477.049-.935.147-1.411.225-1.907.323-2.069.255-2.594-1.606-.391-1.391-1.22-2.106-2.612-2.155-2.965-.108-5.892.225-8.8.842-.524.108-1.039.294-1.363.754-1.535 2.135-3.776 2.008-5.988 2.018-.667-.51-.619-1.234-.496-1.93.41-2.36.525-4.75.573-7.14.19-5.376.066-10.665-3.623-15.062-1.278-1.519-1.001-3.575.562-5.074 2.126-2.037 4.729-2.762 7.532-3.056 6.416-.685 12.604.324 18.41 3.095 6.197 2.958 10.001 8.002 11.117 15.034z"/><path fill="#0D2E33" d="M174.001 55.123c-.401-.265-.448-.686-.525-1.127-.362-2.184-1.239-4.152-2.498-5.925-1.21-1.704-2.364-3.447-3.956-4.858-2.555-2.262-5.606-3.428-8.762-4.397-2.946-.911-5.94-1.607-9.029-1.577-2.641.02-5.282.117-7.875.744-1.764.431-3.194 1.46-4.452 2.703-1.43 1.41-1.259 3.095.085 4.564 1.774 1.95 2.737 4.349 3.07 7.003.239 1.88.439 3.77.592 5.661.057.686.209 1.42-.296 2.037-.467.372-.934.147-1.325-.098-3.366-2.154-7.055-1.841-10.736-1.518-1.048.088-2.088.274-3.117.49-.563.127-1.144.255-1.678-.137-.801-4.496-.973-8.981.763-13.28 1.954-4.849 5.339-8.003 10.563-8.747.582-.078 1.039-.225 1.469-.764 3.26-4.143 7.541-6.581 12.594-7.531 4.672-.872 9.372-.764 14.025.235 2.087.45 4.052 1.234 5.806 2.507 2.45 1.782 3.308 4.339 2.45 7.277-.095.313-.219.607-.296.93-.219 1.019-.104 1.41.811 1.812 4.366 1.93 6.006 7.1 4.271 11.704-.362.97-.677 2.115-1.973 2.311z"/><path fill="#B85747" d="M135.645 87.698c.992.47 1.86 1.234 3.023 1.332.486.039.658.411.791.881 1.211 4.368 3.785 7.395 8.133 8.678.81.245 1.62.46 2.45.627.81.166 1.687.293 2.212 1.096.286.441.896.314 1.211.715.324.97 1.277 1.097 1.964 1.587 2.688 1.371 5.424 2.517 8.532 1.812.315-.069.62-.02.859.255-.782 4.378-1.907 8.638-4.367 12.389-.963 1.469-2.136 2.713-3.699 3.477-.744.362-1.116.881-1.278 1.694-.476 2.292-1.296 4.466-2.25 6.592q-.257.22-.543.029c-.496-1.547-1.03-3.085-1.469-4.642-.314-1.117-1.096-1.685-2.002-2.175-2.965-1.596-5.758-3.457-8.294-5.7-2.165-1.91-4.281-3.849-5.616-6.562-.82-1.665-1.125-3.437-1.068-5.181.048-1.528-.028-3.026-.076-4.534-.076-2.282-.191-4.555-.286-6.827.953-1.106 1.23-2.468 1.392-3.868.067-.578-.048-1.205.41-1.685z"/><path fill="#D47259" d="M255.202 224.53c-.143 2.213-.105 4.436-.286 6.66-.181 2.213-.668 4.28-1.793 6.16a233 233 0 0 1-3.613 5.925c-2.174 3.438-5.377 5.054-9.277 5.417-2.211.205-4.423.274-6.645.313-2.793.039-5.034-.97-6.731-3.252.019-1.39 1.259-1.87 1.993-2.683 1.764-1.939 2.355-1.92 4.242-.059.611.607 1.116 1.009 2.05.578.753-.353 1.669-.372 2.489-.196 1.487.323 2.774.118 3.87-.989.382-.284.792-.539 1.23-.676-.019 0 .067-.029.067-.029s-.095.019-.105.019c-.524.147-.925.5-1.382.754-.944.97-2.06 1.225-3.328.892-.467-.118-.982-.216-1.401-.059-1.84.685-3.242.098-4.643-1.205-.868-.793-.954-1.293-.153-2.057.42-.401.725-.94 1.345-1.087.247-.049.486-.019.715.098.581.5.114 1.46.8 1.91 1.917 1.244 3.337 1.381 4.767-.029 1.974-1.959 4.243-3.389 6.598-4.741.296-.274.601-.558.915-.793v-.127s-.047.127-.057.137c-.343.255-.639.558-.963.823-2.298 1.283-4.5 2.673-6.397 4.583-1.402 1.411-2.813 1.313-4.739.186-1.039-1.038-.419-1.919.229-2.811q.117-.205.248-.382c.496-.548.925-1.126 1.24-1.811.553-.823 1.287-1.509 1.639-2.459.458-.911.811-1.831.954-2.879.467-3.477 2.765-5.416 5.777-6.425 3.004-1.009 6.083-1.753 9.134-2.625 1.449-.411 1.64-.235 1.783 1.224-.172.568-.162 1.205-.553 1.705z"/><path fill="#3B4044" d="m152.663 128.881.544-.029c1.954-.059 3.728-.725 5.387-1.734.19-.372.476-.587.886-.597 2.746-1.616 4.396-4.114 5.425-7.11 1.068-3.125 2.012-6.259 1.325-9.706 1.021-.177 1.898-.216 2.784-.118 1.211 1.89 1.144 4.065.973 6.112-.687 8.148-4.262 14.642-11.184 18.873-11.107 6.797-24.559 2.105-29.336-10.196-1.068-2.742-1.735-5.592-1.573-8.589.029-.598.01-1.205.4-1.714.391-.539 1.002-.784 1.526-1.127.848-.548.944-.509 1.306.549 1.077 3.154 2.631 6.023 4.824 8.491 2.803 3.164 6.236 5.299 10.23 6.464.248.069.525.049.782.069.362-.039.706-.039.982.264 1.564.333 3.127.627 4.71.108z"/><path fill="#274448" d="M123.509 58.668c3.155-.685 6.321-1.175 9.562-1.018 2.193.107 4.3.42 6.131 1.802.333.254.715.47 1.163.48a31 31 0 0 1-.477 7.55c-.105.54-.381 1.166.191 1.646 0 .421-.296.578-.601.597-2.031.177-3.976.95-6.035.931-.686-.284-1.363-.568-2.05-.842-1.42-.559-2.784-.53-4.08.372-.21.147-.487.186-.735.274-1.172-3.173-2.326-6.356-2.86-9.725-.105-.696-.257-1.371-.2-2.087z"/><path fill="#0E2E33" d="M133.443 70.676c1.725-.862 3.604-.99 5.453-1.264.401-.058.849.098 1.182-.274.982-.215 1.955-.46 2.946-.646 1.021-.186 2.098-.196 2.422-1.577.095-.421.61-.607 1.02-.715a33.1 33.1 0 0 1 10.23-.97c1.421.088 2.136.94 2.441 2.39.048.215.067.43.076.646.057.872.458 1.048 1.259.823.762-.206 1.544-.372 2.355-.313.514.039.715-.206.791-.754.41-3.086.667-3.399 3.651-3.889 2.451-.401 4.93-.656 7.389-.97.315.02.63.03.944.07 1.287.156 1.859.558 2.05 1.84.486 3.213.648 6.455.181 9.697-.124.881-.648 1.459-1.449 1.772-.343.138-.696.255-1.039.382-2.203.196-4.395.392-6.598.578-.524-.274-1.115.02-1.64-.225-.105-.02-.219-.03-.324-.05-.61.167-.944-.283-1.325-.626-1.135-1.283-1.259-2.958-1.592-4.534-.315-1.499-.639-1.675-2.517-1.587-1.268.059-1.459.813-1.449 1.841 0 .92.038 1.851-.029 2.772-.086 1.371-.648 2.39-2.031 2.791-.41.098-.829.088-1.239-.01l-.648.06c-.315.185-.706.038-1.021.224-.896.088-1.792.147-2.679.255-1.325.166-2.641.069-3.937-.215-1.564-.343-2.508-1.283-2.784-2.929-.277-1.606-.448-3.222-.439-4.858 0-1.106-.114-1.243-1.068-1.008-1.639.391-3.336.577-4.891 1.302-1.449.725-2.926 1.205-4.547.695-.458-.137-.811-.46-1.173-.744z"/><path fill="#50606D" d="M233.541 179.448c.2-1.959-.439-3.879-.305-5.837.038-.568-.21-1.411.553-1.499.858-.098.657.764.724 1.322.324 2.948.534 5.916.982 8.844.524 3.409.992 6.837 1.697 10.215 1.478 7.023 2.879 14.065 4.348 21.087.4 1.9.915 3.78 1.382 5.671.181.734.439 1.106 1.325.793 2.098-.735 4.233-1.342 6.35-1.988 2.269-.696 4.557-1.371 6.817-2.096.429-.137.801-.255 1.192.029.305 1.401-.105 2.684-.591 3.957-.258.245-.553.265-.868.137-.572-.392-.277-1.204-.782-1.763-.534.647-.009 1.44-.419 2.008-.248.333-.553.519-.982.392-.572-.451.104-1.254-.553-1.802-.544.724.209 1.253.219 1.851-.4.617-.953.793-1.64.578-.448-.578.019-1.264-.257-2.067-.963.588-.458 1.724-.944 2.38-.277.333-.601.509-1.03.353-.572-.382-.21-1.234-.81-1.705-.658.539-.258 1.401-.601 2.008-.172.294-.41.451-.753.363-.648-.324-.229-1.225-.868-1.656-.333.666.038 1.421-.324 2.018-.2.284-.467.382-.791.264-.515-.382-.239-1.106-.648-1.567-.43.559-.105 1.264-.391 1.822-.143.304-.363.49-.715.441-.677-.47-.22-1.43-.782-2.057-.143.823.381 1.42.372 2.125-.42.48-.868.813-1.488.314-1.344-5.015-2.803-10-3.899-15.073-1.983-9.177-4.243-18.295-5.53-27.61-.105-.744-.295-1.498.029-2.242zM128.304 114.073c-.134 3.448.305 6.787 1.516 10.039.839 2.262 2.04 4.28 3.546 6.102 2.813 3.418 6.369 5.553 10.66 6.571 3.851.911 7.56.471 11.154-.901 5.463-2.096 9.534-5.905 12.099-11.322 1.106-2.34 1.707-4.838 2.145-7.433.439-2.596-.067-5.044-.381-7.551a2.76 2.76 0 0 1 1.268.049c.219 1.498.324 2.997.343 4.524.124 7.63-2.994 13.761-8.342 18.746-3.185 2.968-7.027 4.868-11.336 5.338-5.845.637-11.212-.803-15.874-4.613-4.005-3.271-6.407-7.512-7.408-12.654a14.2 14.2 0 0 1-.277-3.222 8 8 0 0 0-.362-2.723c.334-.45.734-.803 1.278-.96z"/><path fill="#0F3236" d="M102.924 218.311c2.069-.627 4.129-1.293 6.159-2.067 3.604-1.381 6.598-3.682 9.162-6.523 3.48-3.849 6.798-7.864 10.183-11.811.105-.118.171-.274.257-.402a.64.64 0 0 1 .324-.411v.02c.22-.412.41-.862.982-.853.229.098.401.226.277.529-1.869 2.645-4.033 5.025-6.035 7.552-1.373 1.723-2.755 3.437-4.233 5.073-3.28 3.643-7.046 6.532-11.66 8.148-1.583.363-3.099 1.019-4.748 1.107-.334.088-.715.284-.677-.352z"/><path fill="#113135" d="M244.686 223.815c.257.019.477-.049.629-.275.353-.372.744-.587 1.268-.401.258.029.486-.02.648-.255.353-.362.754-.597 1.269-.352.247.019.486-.02.657-.235.41-.549.944-.637 1.564-.451.362.049.667-.098.953-.284.372-.333.773-.578 1.287-.372.563-.108 1.125-.206 1.602-.568.076-.128.181-.147.305-.079.363.049.649-.156.944-.313q.129-.117.286-.206c.219-.088.439-.166.668-.225a.33.33 0 0 1 .305.127l.943.03c.43.362.487.832.306 1.322a10.3 10.3 0 0 1-1.993 3.281c-.296.333-.563.147-.82-.059-.315-.519-.133-1.077-.124-1.626.038-.323.162-.636-.029-1.087-.448.079-.953.128-1.439.265a948 948 0 0 0-8.552 2.468c-1.602.47-2.984 1.342-4.205 2.517-1.191 1.165-1.592 2.664-1.811 4.241-.143.999-.448 1.89-1.058 2.683-.687 0-.735-.441-.62-.979.658-.735.991-1.567 1.039-2.596a5.35 5.35 0 0 1 1.564-3.604q.112-.117.209-.235 1.154-1.37 2.346-1.939c.028-.245.143-.294.333-.147.382-.264.906-.186 1.24-.548q.1-.207.286-.089z"/><path fill="#193336" d="M233.245 239.182c-.706.558-1.316 1.214-1.878 1.929.343.48.925.49 1.182.862 1.039 1.449 2.345 1.449 3.852.94.591-.196 1.249-.108 1.878.078.972.284 1.869.196 2.612-.617.134-.147.372-.196.553-.293.353-.128.429.039.363.362-.239.206-.496.401-.716.637-.734.812-1.468 1.126-2.631.763-1.125-.342-2.412-.333-3.556.216-.706.343-1.173.166-1.63-.431a5.14 5.14 0 0 0-1.84-1.499c-.534-.264-.963-.254-1.402.236-1.02 1.165-2.221 2.144-3.156 3.388l-.114.02h-.115c-.362.088-.505-.059-.429-.431l9.096-9.843a153 153 0 0 1 1.735-1.861c.277-.127.391.049.486.274 0 .079.01.147.019.226a2 2 0 0 0-.047.215c-.181.392-.506.676-.725 1.048-.038.059-.076.118-.105.176-.038.059-.076.108-.114.167-.162.205-.353.401-.525.607-.114.167-.228.333-.324.509a3 3 0 0 1-.229.353c-.657.754-1.315 1.518-2.221 1.988z"/><path fill="#2C464A" d="M135.645 87.698c.181 1.802-.21 3.506-.886 5.151-.182.45-.391.784-.906.402-.496-1.117-.992-2.233-1.488-3.36.763-.636 1.535-1.263 2.279-1.91.305-.264.61-.371 1.001-.283"/><path fill="#1D3336" d="M164.8 104.7c-3.537.813-6.759-.019-9.772-1.988-.048-.313.009-.509.381-.372 1.364.519 2.698 1.126 4.109 1.528 1.879.538 3.719.244 5.587.078.363-.118.467.039.41.382-.238.117-.476.245-.715.362z"/><path fill="#263E41" d="M226.199 245.342c.143.137.287.284.43.421-2.127 2.429-4.453 4.642-6.751 6.895l-.133-.049a.6.6 0 0 1-.2-.206l-.038-.137a126 126 0 0 1 6.692-6.914z"/><path fill="#FBA288" d="M147.953 128.774c-.362.058-.705.019-.982-.265.773-1.626 1.659-3.183 2.899-4.515-.057 1.851-1.278 3.193-1.917 4.77z"/><path fill="#FAA389" d="M159.49 126.521c-.21.343-.553.47-.896.597-.534-1.067-1.259-1.988-1.907-2.977-.267-.401-1.001-.901-.42-1.332.477-.352.868.431 1.173.833.715.93 1.373 1.919 2.05 2.889z"/><path fill="#2F4244" d="M165.525 104.337c-.134-.127-.277-.254-.41-.382.553-.215 1.096-.43 1.649-.656.324-.078.429.069.362.382-.486.323-.982.637-1.592.656z"/><path fill="#525A5A" d="M167.108 103.681c-.124-.127-.239-.254-.363-.382.372-.176.725-.979 1.125-.029-.228.186-.448.402-.762.411"/><path fill="#4B6467" d="M102.924 218.31c.124.324.448.235.677.353-.429.225-.886.666-1.22-.118.181-.078.362-.156.553-.235z"/><path fill="#C6B2AD" d="M255.364 222.865c.191.529.105 1.087.124 1.626a.7.7 0 0 1-.286.039c-.048-.568-.172-1.146.162-1.665"/><path fill="#6F6662" d="M219.316 252.962c-.067-.274-.086-.529.19-.705.058-.02.115 0 .162.029q-.011.192.163.176c.047.059.066.128.038.196-.086.294-.344.265-.572.304z"/><path fill="#FC987C" d="M177.69 251.493c-3.575-.265-6.826-1.401-9.553-3.849-3.49-3.134-5.32-7.228-6.378-11.763-.324-1.371-.601-2.752-.916-4.123-.209-.892.067-1.734.229-2.576.391-2.096 1.058-4.094 2.565-5.661 1.268-.979 2.679-.882 4.09-.529 6.083 1.508 9.925 5.661 12.461 11.283 1.001 2.223 1.592 4.603 1.84 7.042.343 3.398-.791 6.385-2.65 9.137-.239.353-.601.608-.992.794-.229.078-.467.137-.686.245z"/><path fill="#DA7862" d="M177.919 251.218c2.136-1.557 2.832-3.956 3.48-6.366.782-2.918-.057-5.69-.887-8.423a20.7 20.7 0 0 0-1.916-4.446c-1.526-2.625-3.547-4.74-5.978-6.415-2.698-1.871-5.654-2.909-8.981-2.037.648-1.146 1.802-1.626 2.813-2.302 5.625-1.528 10.334.147 14.463 4.182 2.927 2.86 4.929 6.249 5.644 10.303 1.029 5.867-.353 10.95-5.101 14.77-.162.127-.257.343-.381.509-1.011.617-2.05.921-3.156.225"/><path fill="#50606D" d="M129.915 196.411c-.305.235-.6.47-.905.705-.067-.852.676-1.175 1.077-1.714 2.183-2.997 4.5-5.856 7.036-8.55 2.269-2.409 4.281-5.073 6.493-7.541 1.468-1.636 2.993-3.203 4.309-4.966-.009-.48-.419-.421-.677-.548-2.336-1.146-3.937-3.056-5.177-5.318a28.5 28.5 0 0 1-3.137-9.158c-.162-.999-.114-2.047-.162-3.065-.495-.137-.667.284-.915.529-2.955 2.859-6.054 5.543-9.191 8.187-1.992 1.685-3.861 3.526-5.825 5.25-2.202 1.929-4.3 3.996-6.569 5.847-1.85 1.518-3.566 3.212-5.377 4.789-3.261 2.821-6.388 5.808-9.744 8.521-2.069 1.665-4.224 3.242-6.102 5.152l-.114.117c-.496.382-1.173 1.117-1.592.578-.458-.588.467-1.068.905-1.43 3.804-3.173 7.551-6.405 11.289-9.667 3.165-2.771 6.388-5.474 9.562-8.246 1.326-1.156 2.565-2.429 3.871-3.604 2.622-2.351 5.168-4.79 7.799-7.121 2.355-2.086 4.691-4.191 7.103-6.209 2.269-1.89 4.157-4.172 6.331-6.151 1.268-1.155 2.516-2.311 3.708-3.545.363-.372.773-.558 1.278-.5.677 1.274.639 2.704.724 4.085.21 3.516 1.154 6.806 2.775 9.892 1.144 2.174 2.85 3.721 5.177 4.475.353.245.782.284 1.163.441.057.49-.238.803-.544 1.117-1.573 1.655-3.108 3.33-4.433 5.239-.791 1.137-1.878 2.175-2.879 3.193-2.222 2.253-4.224 4.701-6.388 7.003-1.859 1.978-3.499 4.172-5.263 6.249-1.001 1.185-2.145 2.242-3.041 3.516-.277.391-.572.764-.868 1.146-.772.137-.934 1.126-1.687 1.292z"/><path fill="#173436" d="M154.999 167.646c-.295.098-.6.529-.896 0-.095-.284 0-.529.143-.764.172-.274.391-.509.61-.754 4.405-4.897 2.927-5.455 10.164-6.954a7.7 7.7 0 0 0 2.64-1.087c2.022-1.312 4.129-1.41 6.398-.891 1.868.431 3.775.431 5.663.029.362-.098.639-.509 1.087-.323.105.127.21.265.324.392-.238.852-.896 1.116-1.649 1.293-1.898.45-3.814.254-5.635-.206-1.993-.499-3.718-.441-5.539.705-2.346 1.479-5.091 1.998-7.732 2.703-.21.098-.382.275-.601.353-1.792 1.694-3.28 3.692-4.958 5.494z"/><path fill="#19383A" d="M177.919 251.218c1.068.137 2.107-.137 3.156-.225 1.668 1.038 3.48.676 5.244.48 1.363-.147 2.679-.558 3.956-1.117.734-.323 1.497-.577 2.269-.049.096.138.105.265-.009.392-.658-.176-1.211.079-1.812.333-2.755 1.185-5.606 1.92-8.609 1.234-1.02-.235-2.011-.568-3.079-.382-.487.088-.935-.127-1.345-.391.077-.089.153-.187.229-.275"/><path fill="#1D4D49" d="M129.915 196.411c.296-.577.763-.989 1.211-1.43.191-.186.362-.078.477.138-.496.509-.734 1.243-1.325 1.674-.124-.127-.239-.254-.363-.382"/><path fill="#33504A" d="M192.535 250.699c0-.127 0-.264.009-.392.382-.058.658.177.944.363.048.284-.019.441-.334.313-.238-.029-.476-.049-.619-.284"/><path fill="#486457" d="m193.155 250.983.333-.313c.315.108.591.264.753.578q-.214.25-.486.058a.91.91 0 0 1-.61-.333z"/><path fill="#44836C" d="m193.755 251.307.486-.059c.077.108.143.226.21.334a.76.76 0 0 1-.696-.275"/><path fill="#AA8468" d="M159.967 162.153a.68.68 0 0 1 .6-.354c-.152.206-.333.354-.6.354"/><path fill="#D47259" d="M180.169 157.568c-1.745.666-3.613.588-5.301.167-2.822-.696-5.32-.431-7.837 1.067-1.725 1.028-3.718 1.528-5.682 1.9-1.297.245-2.221.901-3.032 1.871-1.401 1.684-2.803 3.379-4.204 5.063-2.803-.597-4.663-2.448-5.94-4.926-1.592-3.095-2.574-6.386-2.679-9.921-.038-1.352-.439-2.674-.315-4.036 4.824-5.612 10.307-10.411 16.551-14.279 5.13-3.183 10.211-2.899 15.255.186.181.235.448.382.581.666.21.49.429.979.62 1.479.076.235.114.47.134.715.019.734.057 1.479-.086 2.203-.115.461-.229.921-.286 1.391a3.4 3.4 0 0 1-.096.46 6 6 0 0 0-.19.941c-.382 1.831-1.411 3.261-2.737 4.476-.943.861-2.059 1.322-3.365 1.057-1.049-.754-.219-1.283.248-1.792 1.106-1.195 1.983-2.546 2.269-4.172.515-2.987-1.087-5.054-4.348-5.749-.228-.049-.457-.137-.686-.177-.458-.166-.934-.107-1.411-.117h-1.64c.753.01 1.516 0 2.269 0 .153 0 .305.019.458.039.229.078.467.127.696.186.572.088 1.134.216 1.668.451 2.603 1.116 3.661 3.437 2.717 6.189-.781 2.273-2.154 4.065-4.338 5.093-1.83.118-2.297-.499-1.763-2.243.143-.479.391-.871.648-1.283q.934-1.499-.849-1.596c-.228 0-.438-.059-.648-.157-1.058-.391-1.745-.284-1.983 1.097-.343 1.969-1.726 3.262-3.146 4.486-.057 1.361.572 2.625.534 3.976-.324 1.45-.439 2.968-1.125 3.918.314-.656.848-1.616.915-2.752.467-1.479.067-2.889-.286-4.31-.095-.597.143-1.008.591-1.39 1.335-1.117 2.317-2.508 2.66-4.271.134-.656.439-.93 1.068-.901.248 0 .477.049.705.157.21.029-.066.02.143.049q2.079.294 1.068 2.155a3.2 3.2 0 0 0-.248.587c-.229.715-.591 1.46-.028 2.135.562.696 1.315.49 2.03.236.973-.51 1.64-.333 1.821.881.01.607.029 1.205-.009 1.802a3.9 3.9 0 0 0-.143 1.195c0 .225-.01.441-.105.646.114-.166.105-.352.114-.548 0-.313-.019-.637.077-.94.229-.813-.105-1.695.267-2.488a.86.86 0 0 1 .658-.313c1.248.088 1.964 1.067 2.85 1.772.21.549.305 1.107.172 1.695-.124.058-.258.107-.382.166-.753.754-.486 1.293.334 1.744 1.44.783 2.851 1.616 4.138 2.634.448.353 1.011.686.648 1.44z"/><path fill="#DA7862" d="M243.16 224.451c-.114.049-.228.098-.333.147a675 675 0 0 1-5.206-18.912c-1.23-4.76-2.717-9.451-4.033-14.191-.724-2.625-1.601-5.152-3.051-7.463-1.096-1.754-2.402-3.281-3.994-4.584-1.936-1.587-3.881-3.164-5.768-4.809-.878-.764-1.764-1.577-2.203-2.742-.124-.323-.381-.519-.667-.666.391-.96 1.23-.901 2.021-.96 3.28 2.262 6.559 4.544 9.858 6.787 1.23.833 2.508 1.597 3.757 2.4.305 1.694.677 3.388.905 5.102.649 5.005 1.869 9.883 2.908 14.799 1.402 6.66 2.813 13.32 4.472 19.921.438 1.724 1.058 3.409 1.325 5.181z"/><path fill="#0D2E33" d="M219.926 170.271c-.572.548-1.449.411-2.021.96-1.678.538-3.137 1.537-4.605 2.478-5.034 3.232-9.649 7.012-13.767 11.4-.668.705-1.211.813-2.05.45-1.306-.568-2.65-1.038-3.985-1.547a.34.34 0 0 1-.096-.265c.01-.097.029-.146.048-.146.896-.833 1.754-1.705 2.612-2.576.439-.451.868-.96 1.593-.921.572.539 1.048.392 1.611-.098 3.241-2.791 6.588-5.465 10.144-7.835.934-.627 1.831-1.303 2.803-1.851.696-.382.82-.911.734-1.606.486-.813 1.373-.823 2.126-1.107.334-.029.591-.441.982-.235 1.364.872 2.794 1.645 3.881 2.899z"/><path fill="#EE9A7E" d="M212.308 167.362c-.219-.558-.448-1.116-.667-1.675 1.134-.568 2.031-.156 2.822.706-.038.881-.858.617-1.287.92-.286.088-.572.137-.868.059z"/><path fill="#284241" d="M212.899 167.068c.468-.352 1.125-.235 1.554-.675.696.048 1.135.528 1.593.979-.286.137-.344.568-.715.578-.63-.647-1.431-.274-2.155-.382-.21-.098-.381-.225-.277-.5"/><path fill="#B17D62" d="M182.324 139.645c.114-.019.238-.029.353-.049.171.862-.324 1.744.028 2.605-.19-.107-.381-.205-.572-.313-.391-.206-.19-.568-.219-.872.324-.401.238-.93.41-1.371"/><path fill="#62B0A0" d="M129.009 197.097a.53.53 0 0 1-.324.412c.019-.216.124-.353.324-.412"/><path fill="#DA7862" d="M219.907 206.371c-.162 3.076-1.039 5.573-2.584 7.855-.82 1.205-1.821 2.243-2.86 3.252-.458.45-.982.94-1.668.725-.687-.226-.773-.882-.906-1.567-.877-4.29-2.565-8.237-5.006-11.832-1.449-2.135-2.593-4.466-4.071-6.581-.581-.833-.362-1.332.563-1.763.048-.02.105-.029.152-.039 4.157-1.293 8.2-1.273 11.918 1.342 2.174 1.527 3.575 3.672 4.062 6.356.152.842.514 1.665.39 2.262zM167.708 203.306c-2.088-2.282-3.184-5.044-3.785-8.07-.467-2.331-.267-4.623.019-6.934.267-2.165 1.059-2.841 3.185-3.007a27.6 27.6 0 0 1 8.733.685c1.03.245 1.907.97 3.003.97.191.597-.362.734-.639.97-4.71 4.015-7.76 9.196-10.01 14.945-.096.225-.248.392-.496.441zM223.73 203.59c.391 1.224.515 2.507.582 3.781.143 2.928-.267 5.788-.906 8.658-.505 2.282-1.239 4.456-2.155 6.581-.209.49-.476.97-.762 1.42-.792 1.254-1.802 1.518-3.08.843-1.649-.862-2.269-2.341-1.678-3.957.925.029 1.192-.843 1.63-1.371 3.166-3.81 5.454-8.061 6.007-13.144.105-.93-.353-1.949.362-2.801z"/><path fill="#886458" d="M192.249 221.043c-.191 1.215-.267 2.527-1.221 3.536-1.067 1.126-2.231 1.146-3.317.058-1.717-1.713-1.783-5.837-.134-7.639.849-.921 2.145-.969 3.108-.127 1.24 1.087 1.421 2.576 1.554 4.172zM174.916 214.658c-.086.812-.086 1.586-.248 2.311-.21.95-.782 1.704-1.754 1.88-.868.157-1.564-.401-1.974-1.097-1.153-1.958-1.373-4.074-.486-6.189.305-.725.887-1.411 1.792-1.391.849.019 1.421.568 1.888 1.293.648.999.591 2.164.782 3.193"/><path fill="#8C6559" d="M223.73 203.59c.057 2.664-.124 5.269-1.106 7.806a30 30 0 0 1-4.767 8.168c-.476.578-.915 1.195-1.439 1.714-.429.421-.639.118-.687-.362 1.831-2.047 3.461-4.231 4.758-6.68 1.43-2.703 2.402-5.583 2.498-8.648.095-3.193-.792-6.112-3.108-8.413-.344-.343-.639-.715-.963-1.077-.067-.314.028-.451.352-.353 2.689 1.9 4.024 4.603 4.453 7.845z"/><path fill="#96695B" d="M168.051 202.934c1.621-4.486 3.661-8.717 6.951-12.184 1.248-1.312 2.564-2.537 3.861-3.81 1.687-1.371 2.85-3.104 3.423-5.563.324 2.047-.582 3.33-1.583 4.505a29.4 29.4 0 0 1-3.27 3.311c-2.975 2.546-5.139 5.68-6.874 9.206-.782 1.597-1.64 3.144-2.212 4.848-.277.069-.429.02-.296-.313"/><path fill="#9B6C5E" d="M219.268 195.745c-.114.118-.238.235-.353.353-4.195-3.056-8.981-3.546-13.957-3.203.066-.441.295-.352.448-.372.209-.029.419-.01.638-.02 2.746-.049 5.502-.195 8.181.647 1.821.578 3.613 1.195 5.043 2.595"/><path fill="#233739" d="M193.498 183.62v.382c-.391.069-.715-.147-1.068-.255-1.468-.47-1.554-.656-.582-1.782 1.44-1.655 2.841-3.369 4.786-4.447.029.079.058.167.086.255.086.979-.696 1.371-1.249 1.89-.572.549-1.201 1.019-1.783 1.567-.801.764-1.249 1.499-.19 2.39"/><path fill="#2F3C3C" d="M237.364 233.981c-.115-.118-.22-.235-.334-.343.124-.313.324-.538.629-.666.181.343.277.745.62.98-.305.93-.982 1.586-1.592 2.291-.134.118-.258.108-.382-.009a.56.56 0 0 1 .096-.647v.02c.133-.147.2-.353.333-.51.248-.235.429-.528.62-.822l-.019.019c.086-.068.114-.137.095-.205-.019-.079-.047-.108-.076-.108z"/><path fill="#AA7362" d="M168.051 202.934c.096.108.191.206.296.313-.353.872-.4 1.852-.887 2.674a.6.6 0 0 1-.276-.343c.171-.754.591-1.459.534-2.272.114-.127.229-.245.343-.372z"/><path fill="#A77262" d="M167.174 205.578c.096.118.191.225.277.343-.019.147-.067.411-.2.343-.267-.147-.115-.441-.077-.686"/><path fill="#0D2E33" d="M168.061 81.135c1.02.294 2.05.52 3.003 1.029.887.47 1.516 1.185 1.945 2.076.706 1.45.41 2.537-1.001 3.252-2.088 1.048-4.224 2.017-6.531 2.468-4.862.94-9.581.362-14.177-1.47a4.5 4.5 0 0 1-.581-.273c-1.497-.823-1.659-1.568-.649-2.978.868-1.205 2.012-2.076 3.299-2.752a75 75 0 0 1 1.993-.99c.4-.352.791-.126 1.182.04 2.498 1.077 5.129 1.185 7.78 1.126.924-.02 1.773-.245 2.402-1.018.343-.421.706-.862 1.335-.52z"/><path fill="#B95847" d="M133.862 78.677c-1.029 1.587-1.01 2.155.058 3.389.171.206.39.343.438.636.095.569-.248.921-.81.823-.944-.176-1.583-.94-1.707-2.076-.143-1.342.105-2.586.915-3.683.563-.754.506-1.009-.181-1.528-.877-.656-1.649-.587-2.383.255-.172.196-.277.46-.439.676-.124.166-.286.343-.534.235-.238-.098-.248-.323-.257-.539-.048-1.244 1.449-2.419 2.793-2.194 1.24.216 2.107 1.019 2.775 2.018.734 1.087 1.067 2.35 1.077 3.683 0 .284-.133.548-.439.577-.238.02-.343-.205-.467-.391-.343-.549-.324-1.264-.848-1.88z"/><path fill="#B75948" d="M168.061 81.136c-.248.068-.591.029-.706.293-.638 1.518-1.964 1.646-3.289 1.695-3.013.098-5.968-.186-8.714-1.616a8.2 8.2 0 0 1 1.259-3.614c.257-.314.591-.314.943-.255-.305.813-.219 1.685-.352 2.517-.096.627.467.95 1.001 1.058 2.107.421 4.214.96 6.388.803 1.468-.108 1.706-.5 1.325-1.978-.296-1.117-.896-2.234-.105-3.399.324.206.648.411.963.617.191 1.371.848 2.586 1.268 3.878z"/><path fill="#B95847" d="M157.526 91.713c.791.392 1.602.833 2.479 1.136 1.458.51 2.888.558 4.328 0a43 43 0 0 1 1.192-.43c.286-.099.629-.294.801.136.124.314-.162.49-.391.627-3.099 1.842-5.654 1.626-8.371-.793-.162-.147-.267-.333-.038-.676"/><path fill="#2B4548" d="M134.615 71.42c1.545-.059 2.985-.803 4.548-.695-.143 1.43-.829 2.663-1.439 4.26-.897-1.489-2.041-2.488-3.109-3.565"/><path fill="#373A39" d="M155.419 102.339c-.124.128-.258.245-.382.373-.753-.275-1.334-.823-1.897-1.362-.238-.225.162-.245.315-.303.658.431 1.306.871 1.964 1.302z"/><path fill="#B75948" d="M167.127 77.306c.562-.04 1.125-.108 1.64.226-.563.03-1.145.235-1.64-.226M154.961 78.179c.296-.285.649-.285 1.02-.226-.286.343-.648.284-1.02.225"/><path fill="#0E2E33" d="M153.312 57.317c1.983 0 2.65.519 2.727 1.998.028.47-.067.852-.544 1.038-1.954.774-3.918 1.547-5.873 2.34-.648.265-1.258.285-1.726-.313-.419-.538-.467-1.146-.247-1.831.247-.764.724-1.313 1.334-1.753 1.316-.96 2.756-1.567 4.319-1.489zM170.492 61.283c-.391-.078-.753-.147-1.115-.215-1.087-.196-2.155-.569-3.28-.451-1.144.117-1.392-.823-1.745-1.577-.362-.774.134-1.361.649-1.841 1.887-1.724 5.529-1.146 6.845 1.048.41.685.591 1.43.219 2.164-.314.627-.953.803-1.582.862z"/><path fill="#1B3336" d="M234.894 240.768c1.726 1.185 3.376.892 4.739-.529 1.811-1.9 3.985-3.183 6.264-4.338.333-.098.438.049.372.372-.115.108-.201.255-.334.333-2.345 1.332-4.481 2.928-6.512 4.76-1.649 1.488-3.175 1.283-4.958-.157-.076-.372.067-.519.429-.431z"/><path fill="#323D3C" d="M234.894 240.768c-.143.147-.286.284-.429.431-.867-.49-.629-1.263-.495-2.018 0-.587.486-.881.772-1.292a.47.47 0 0 1 .41-.069.8.8 0 0 1 .229.372c-.201.314-.382.647-.601.95-.41.578-.315 1.117.114 1.626"/><path fill="#D8D3D2" d="M235.152 237.909c-.391.421-.782.852-1.173 1.273h-.734c.572-.872 1.287-1.626 2.06-2.312a.39.39 0 0 1 .429-.058c.324.656-.305.783-.582 1.097"/><path fill="#3D494A" d="M235.152 237.908c.134-.372.515-.597.544-1.018a.35.35 0 0 1-.02-.323c.105-.137.239-.245.344-.373.105-.068.2-.068.295.02.124 0 .258.02.382.029-.267.637-.506 1.283-1.144 1.656a.6.6 0 0 1-.334.098z"/><path fill="#3C3E3C" d="M241.807 242.453c-.124-.118-.239-.245-.363-.363.448-.48 1.02-.646 1.64-.705q.13.132.086.265c-.029.088-.067.127-.095.127-.42.225-.839.45-1.268.676"/><path fill="#313A3A" d="M246.269 236.263c-.124-.127-.248-.245-.372-.372.334-.313.677-.627 1.011-.94.295-.059.467 0 .333.362-.219.431-.534.764-.972.96z"/><path fill="#514540" d="M247.241 235.313c-.114-.118-.229-.235-.334-.363.115-.225.267-.626.467-.499.42.274.115.597-.133.852z"/><path fill="#674D44" d="M243.065 241.777c0-.127 0-.264.01-.392.076-.107.2-.147.248-.039.104.245-.019.392-.258.431"/><path fill="#1A3235" d="M235.218 237.996c.105-.029.22-.068.325-.098-.058.099-.115.197-.172.285a.24.24 0 0 1-.162-.187z"/><path fill="#89E4BF" d="M166.001 121.84c.248.43.096.675-.171.861-.038.03-.21-.058-.21-.098-.01-.323.181-.519.381-.773z"/><path fill="#D47259" d="M154.218 66.474h1.277c2.079.03 2.536.44 2.689 2.517.124 1.567.171 3.134.267 4.711.038.656-.096 1.293-.191 1.94-.076.489-.334.812-.801.88-2.86.451-5.711 1.029-8.638.451-1.315-.264-2.049-.94-2.24-2.321-.267-1.88-.553-3.751-.467-5.66.066-1.401.19-1.539 1.506-1.823 2.279-.5 4.615-.45 6.588-.685zM175.879 75.387c-2.488.813-5.053.94-7.646.842-1.049-.04-1.65-.549-1.926-1.577-.506-1.88-1.087-3.741-1.564-5.632-.219-.852.067-1.723.229-2.556.124-.607.753-.744 1.259-.852 1.134-.245 2.278-.49 3.432-.597 1.678-.147 3.327-.666 5.034-.5.81.96.534 2.184.639 3.271.228 2.527.486 5.054.543 7.59z"/><path fill="#D47259" d="M165.83 76.65c-.153 1.342.276 2.566.667 3.81.401 1.254.067 1.86-1.201 1.978-1.049.098-2.126.118-3.166-.039-1.248-.186-2.497-.372-3.727-.636-1.316-.285-2.384-.735-1.43-2.567.257-.509-.039-1.224.6-1.557 1.335-.333 1.907-1.273 1.945-2.605.029-1.136.029-2.282.029-3.418 0-1.352.076-1.45 1.401-1.577.21-.02.42-.03.63-.04 2.621-.028 2.631-.097 2.774 2.244.095 1.537.515 3.104 1.478 4.407"/><path fill="#FFD488" d="M175.879 75.387c-.467-.089-.515-.441-.534-.853-.21-3.34-.42-6.68-.639-10.009 1.545-.088 1.783.03 1.907 1.41.219 2.439.438 4.878.362 7.326-.028.872-.057 1.783-1.087 2.126z"/><path fill="#3B4044" d="M250.702 221.836c-.477.304-1.011.412-1.564.451 0-.598-.038-1.195 0-1.783.029-.578.372-.871.935-.871.6 0 .629.45.629.901zM252.952 221.18c-.41.206-.811.421-1.287.372v-1.136q.02-1.302 1.459-1.567c.219.803.238 1.577-.172 2.331M248.49 222.532a1.9 1.9 0 0 1-1.268.352c-.029-.528.057-1.067-.133-1.576-.258-.696.276-.843.696-.96.581-.157.686.274.696.744v1.43zM246.574 223.139c-.391.235-.801.421-1.268.402 0-.529-.01-1.058 0-1.587 0-.48-.019-1.019.677-.999.591.02.581.48.591.921v1.273zM256.127 220.181a4 4 0 0 0-.334.04c0-.49-.057-.96-.21-1.44-.238-.754.344-.97.868-1.058.639-.098.591.451.61.882.01.431 0 .871 0 1.302a.37.37 0 0 1-.267.049c-.2.127-.457.098-.667.216zM254.859 220.534c-.105.029-.21.049-.305.078-.878-.215-.858-.989-.887-1.655-.019-.421.381-.607.782-.637.438-.029.677.186.715.656.038.549 0 1.078-.286 1.558zM244.686 223.815a.5.5 0 0 1-.286.088c-.896-.411-.639-1.371-.925-2.067-.105-.264.105-.499.401-.548.267-.049.638-.01.667.235.086.754.582 1.508.133 2.292z"/><path fill="#8B9A9D" d="M256.756 221.562c-.009-.264.019-.509.324-.578.077-.019.229.039.239.088.066.216-.019.392-.22.49-.114.176-.228.176-.352 0z"/><path fill="#87989A" d="M256.708 222.532c-.038.088-.057.196-.114.264-.105.137-.181.451-.372.314-.267-.196-.067-.422.115-.598.133-.166.257-.157.371.01z"/><path fill="#A3AFB1" d="M256.708 222.532c-.124 0-.248 0-.372-.01.058-.245.048-.529.353-.636.105-.118.21-.118.324-.01-.095.225-.2.44-.295.666z"/><path fill="#64AE9E" d="M256.127 220.182c.172-.236.41-.256.667-.226-.181.216-.4.275-.667.226"/><path fill="#DBE0E0" d="M257.004 221.867c-.105 0-.219 0-.324.009a.7.7 0 0 1 .076-.314h.353a.57.57 0 0 1-.096.305z"/><path fill="#7B5F55" d="M237.364 234.275c-.038.45-.2.813-.639.999q-.129.164-.286.02c.181-.461.467-.823.925-1.019"/><path fill="#987C72" d="M236.306 236.214c-.086 0-.172.02-.248.029-.105.128-.2.128-.296 0 .115-.323.286-.587.649-.656-.029.206-.067.421-.096.627z"/><path fill="#B8B5B2" d="M235.762 236.243h.296c-.019.187-.096.334-.305.334-.067.128-.153.137-.239.02.086-.118.172-.236.248-.354"/><path fill="#E9E5E3" d="M235.505 236.596c.085.02.162.01.238-.019-.019.108-.038.216-.057.314-.134 0-.258-.02-.391-.03.067-.088.133-.176.2-.275z"/><path fill="#BE7E6C" d="M236.439 235.294c.095 0 .191-.01.286-.02-.038.186-.133.324-.334.334a.45.45 0 0 1 .048-.314"/><path fill="#6D5950" d="M237.364 233.981c.257.127.181.225-.019.314 0-.108 0-.206.019-.314"/><path fill="#0D2E33" d="M219.839 252.462c-.18.059-.218-.019-.161-.176a.32.32 0 0 1 .161.176"/><path fill="#866358" d="M193.498 183.62c-.372-.421-1.011-.274-1.421-.783.639-1.215 1.63-2.136 2.66-3.027.715-.627 1.507-1.165 1.983-2.027.315.774.62 1.547.935 2.331-1.059.793-1.964 1.763-2.88 2.703-.352.372-.638.881-1.268.813z"/><path fill="#243A3D" d="M180.169 157.568c0-.578-.438-.803-.81-1.097-1.326-1.058-2.784-1.91-4.243-2.762-1.316-.764-1.325-.979-.067-1.949-.209.598-.267 1.038.468 1.42 1.411.735 2.745 1.626 4.08 2.498.477.313 1.03.588 1.211 1.224-.21.225-.42.441-.639.666"/><path fill="#3B4044" d="M175.107 150.046c1.639-.147 2.965-.96 4.128-2.096.314.324.391.686.486 1.038-1.049.138-1.773.892-2.612 1.43-.572.373-1.135.784-1.697 1.176-.401-.451-.372-.999-.315-1.548z"/><path fill="#C16F5C" d="M213.243 167.411c.295-.098.581-.235.886-.284.62-.098 1.135.049 1.211.823-.839.108-1.592.509-2.393.764a40 40 0 0 0-.41-.96c.124-.353.477-.206.706-.343"/><path fill="#525E64" d="M189.379 155.962c-.028-.265-.038-.549-.334-.676v-.617c.801.088.868.352.325 1.293z"/><path fill="#56514F" d="M213.243 167.411c-.181.235-.439.294-.706.343-.152-.079-.248-.196-.229-.392l.601-.294c.114.118.229.225.343.343z"/><path fill="#CAD6CD" d="M189.798 153.552s.086 0 .095.01c.019.03.038.088.029.118-.057.127-.124.117-.162-.02 0-.029.029-.078.038-.117z"/><path fill="#DA7862" d="M169.348 236.655c-.009.597.01 1.185-.267 1.743-.763 1.548-2.278 1.842-3.518.666-1.382-1.312-1.64-4.26-.515-5.817.687-.95 1.097-1.048 2.145-.568 1.678.783 2.203 2.203 2.155 3.966zM177.29 240.347c.076 1.274-.296 2.331-1.545 2.89-.743.333-1.458.313-2.011-.363-1.011-1.234-1.707-2.605-1.526-4.29.115-1.087.83-1.958 1.802-2.242 1.02-.304 1.735.244 2.336.969.715.862.991 1.89.944 3.046z"/><path fill="#3B4044" d="M141.051 163.425c-1.163-1.773-1.201-2.37.095-3.79 1.164-1.283 2.336-2.566 3.852-3.839.2 1.096.353 1.919.506 2.752-1.221 1.88-2.842 3.379-4.443 4.887zM144.855 153.004c.296 1.567-.362 2.674-1.487 3.673-1.154 1.028-2.174 2.204-3.347 3.418-.505-1.185-.858-2.194.077-3.183.934-1.773 2.44-2.928 4.032-3.996.229-.157.506-.127.725.088M146.638 172.151c-.639-.205-1.125-.617-1.516-1.146-.153-.205-.057-.421.105-.577 1.249-1.176 2.116-2.704 3.394-3.849.381-.343.706-.657 1.201-.167.448.431.372.774.038 1.254-.886 1.273-1.697 2.595-2.555 3.898-.162.254-.267.627-.667.587M146.457 161.819c.381.254.457.705.677 1.067.267.441.19.784-.153 1.156-1.268 1.352-2.317 2.909-3.814 4.241-.352-.745-1.287-1.156-.848-2.223a14.1 14.1 0 0 1 4.138-4.241M152.635 168.675c-.134.235-.258.538-.467.773-1.002 1.176-2.222 2.126-3.08 3.448-.334.509-.829.313-1.268.039-.61-.382-.143-.695.048-1.048.705-1.322 1.458-2.615 2.44-3.741.229-.255.429-.715.868-.549.486.177.925.47 1.373.725.057.029.048.196.076.353z"/><path fill="#3B4044" d="M141.995 165.726c-.782-.411-.734-1.243-.944-1.949 1.106-1.684 2.66-2.938 3.947-4.456.229-.274.496-.401.811-.117.162.538.305 1.087.486 1.616.095.284.076.489-.162.675-1.144 1.656-2.508 3.085-4.138 4.241zM148.602 165.432c-.067.138-.124.294-.219.412-1.116 1.371-2.222 2.732-3.356 4.084-.22.264-.572.431-.811.098-.286-.392-.991-.833-.581-1.322 1.115-1.352 2.317-2.645 3.384-4.035.191-.245.477-.617.773-.412.381.255.667.676.81 1.175M139.773 156.912c-.686-.95-.295-1.9.391-2.439 1.411-1.087 2.327-2.634 3.652-3.79.105-.098.276-.127.496-.225.41.607.171 1.263.228 1.87-1.477 1.646-3.184 3.046-4.767 4.574z"/><path fill="#50606D" d="M145.818 159.204c-.353.01-.524.255-.744.509-1.277 1.42-2.545 2.85-4.013 4.075v-.353c1.172-1.92 2.793-3.418 4.442-4.887.105.215.21.44.325.656zM141.995 165.727c1.258-1.538 2.622-2.968 4.138-4.241l.314.323a33 33 0 0 1-4.137 4.241l-.325-.333zM139.773 156.912c1.345-1.792 3.042-3.193 4.767-4.574.105.225.21.441.315.666-1.049.304-1.773 1.097-2.555 1.812-.744.686-1.335 1.547-2.202 2.096z"/><path fill="#223537" d="M171.569 147.803c.201.382.715.196.925.559a9 9 0 0 0-.534.097c-.238.089-.352.5-.705.285-.172-1.078-.839-.862-1.516-.608-.401.177-.458-.029-.401-.372 1.621-.881 2.861-2.184 3.738-3.82 1.668-3.143.534-6.072-2.756-7.208-.343-.117-.734-.088-1.02-.372.048-.196.239-.225.353-.343.887-.039 1.659.323 2.393.754 2.05 1.224 2.813 3.105 2.288 5.553-.372 1.763-1.344 3.174-2.555 4.427-.286.294-.744.568-.21 1.038z"/><path fill="#233537" d="M169.338 147.774c.134.127.267.245.401.372-.753.5-1.516.49-2.174-.108-.696-.636-.496-1.469-.296-2.272.229-.901.859-1.586 1.345-2.35-.629-.431-1.354-.02-1.859-.5.152-.274.505-.108.677-.333.791-.059 1.554.049 2.278.382.115.49-.267.686-.496.94-.533.598-1.001 1.234-1.229 2.038-.41 1.4-.163 1.743 1.363 1.841z"/><path fill="#373C3B" d="M166.173 142.848c-.41.029-.791-.01-.925.597-.4 1.9-1.344 3.477-2.888 4.633-.353.264-.372.617-.344.999-.753.039-.486-.598-.619-.97 1.182-1.038 2.374-2.066 3.003-3.624.315-.793.419-1.635.639-2.536.639.196 1.268.176 1.802.568-.143.274-.496.117-.668.333"/><path fill="#233637" d="M161.397 148.107c.4.196.219.783.619.97.572 1.488.839 2.987.277 4.554-.792-.304-.343-.892-.315-1.391-.286-1.195-.353-2.449-.82-3.604-.086-.216.029-.412.229-.539z"/><path fill="#303A3A" d="M161.988 152.24c.105.46-.115.999.314 1.391-.286 1.479-.791 2.84-1.906 3.908.705-1.724 1.191-3.497 1.592-5.299"/><path fill="#173135" d="M178.262 136.952c.477 1.351.496 2.703.029 4.064a.75.75 0 0 1-.477-.431c-.057-.225-.076-.44.077-.636l.076-2.635c.095-.127.105-.323.295-.362"/><path fill="#413F3D" d="M167.727 135.737c.477-.049.963-.147 1.373.216-.019.127-.086.205-.219.215-.172.01-.343.01-.486.137h-4.176c.658-.46 1.087-.676 1.64-.568a3 3 0 0 0 1.859 0z"/><path fill="#3D3F3C" d="M171.255 148.744c.238-.098.467-.186.705-.284-.247.852.182 1.802-.371 2.605a.63.63 0 0 1-.296-.333l-.029-1.988z"/><path fill="#49433F" d="M177.299 135.404c.696-.069.792.451.906.96-.114.137-.133.352-.362.382-.315-.392-.439-.862-.544-1.342"/><path fill="#243637" d="M167.727 135.737c-.619.442-1.239.413-1.859 0 .62-.127 1.24-.098 1.859 0"/><path fill="#49423F" d="M171.55 152.005c.058.49-.019.911-.495 1.215-.286-.48-.029-.833.171-1.195.105-.147.21-.157.324-.02"/><path fill="#123034" d="M166.173 142.849c.153-.275.42-.275.667-.334.191.019.391.039.582.049-.152.265-.419.294-.677.334-.191-.02-.381-.04-.572-.049"/><path fill="#D37259" d="m177.891 139.939.066.656c.115.216.181.412-.105.549a2 2 0 0 0-.248.108c.039-.451-.152-.951.287-1.313"/><path fill="#123034" d="M171.55 152.005c-.105 0-.219.01-.324.019.019-.43.038-.861.067-1.292l.295.333c-.009.313-.028.626-.038.94"/><path fill="#143034" d="M177.843 136.746c.124-.127.238-.255.362-.382l.057.578-.295.362c-.038-.186-.086-.382-.124-.568z"/><path fill="#122F34" d="m168.719 136.041.381-.088c.181.029.372.059.553.078-.114.118-.238.226-.353.344l-.591-.059c-.076-.059-.095-.128-.066-.187s.057-.088.076-.088"/><path fill="#D37259" d="M177.547 141.584c.029.274-.019.51-.248.686-.009-.265.01-.519.248-.686"/><path fill="#243637" d="M168.719 136.041v.265l-.153.029-.152-.029.314-.265z"/><path fill="#44413D" d="m181.485 143.945-.362-.402c.219-.872.429-1.753.648-2.625.124-.117.248-.117.353.02v.97c-.172.695-.248 1.42-.649 2.046z"/><path fill="#48423E" d="M182.133 140.938c-.114 0-.238-.01-.352-.02.19-.421.143-.95.552-1.263.039.441.163.901-.19 1.283z"/><path fill="#102F33" d="M177.862 141.144c.038-.186.067-.363.105-.549.114.137.219.274.333.412-.028.186-.066.362-.095.548l-.334-.401z"/><path fill="#0F2F34" d="M191.152 220.916c-.181 1.038-.257 2.086-1.163 2.762-.601.44-1.258.411-1.697-.118-.439-.539-.629-1.107 0-1.694.839-.784 1.077-1.812 1.068-2.929 0-.362-.086-.822.4-.92.429-.088.658.245.811.607.314.744.457 1.538.581 2.302z"/><path fill="#123034" d="M173.762 215c-.028.705-.324 1.548-.915 2.282-.315.402-.706.431-1.125.226-.382-.187-.505-.549-.448-.95.047-.314.152-.627.295-.911.477-.96 1.02-1.891.935-3.036-.019-.216.085-.431.352-.431.239 0 .401.166.458.372.2.725.458 1.439.439 2.448z"/><path fill="#183235" d="M153.445 70.96c.019.519-.143.96-.524 1.292-.362.314-.734.373-1.097-.029-.686-.754-.762-2.184-.133-2.997.429-.558.858-.558 1.239.059.315.5.525 1.058.525 1.665z"/><path fill="#193235" d="M168.366 69.334c.048-.166.143-.519.257-.881.143-.46.267-1.01.878-.96.543.049.724.558.915.999.2.47.21.95.047 1.42-.209.597-.543 1.136-1.239.99-.639-.138-.887-.696-.858-1.578z"/><ellipse cx="194.595" cy="157.667" fill="#AFF7CC" rx="8.437" ry="6.289"/><path fill="#0E806D" fill-opacity=".6" d="m190.521 160.961 1.742-5.094.46-.41.199.235q.479.567.908.859.439.303.869.313t.885-.319l-1.752-2.075.669-.596 1.743 2.064q.323-.418.374-.858a1.74 1.74 0 0 0-.149-.936q-.201-.476-.662-1.022l-.198-.235.669-.596 3.738 4.428-.669.596-1.706-2.021a2.4 2.4 0 0 1-.128.825 2.2 2.2 0 0 1-.466.771l1.192 1.413-.669.596-1.174-1.391q-.826.605-1.697.462-.852-.141-1.689-.894l-1.568 4.977z"/><path fill="#D47259" d="M184.946 145.551c0 .157-.048.362.038.47 1.945 2.586 3.241 5.504 4.071 8.648.181.206.229.451.181.715-.582 1.048-1.545 1.009-2.488.833-1.574-.294-2.803-1.205-3.795-2.449-1.106-1.371-2.078-2.84-2.755-4.505-.696-1.175-.773-2.312.105-3.457.419-.559.638-1.244.839-1.92.286-.656.371-1.391.81-1.978.381-.255.553.068.763.293.915.99 1.516 2.214 2.24 3.35z"/><path fill="#1A3539" d="M180.131 149.772c.019-.254.038-.499.257-.666.839 1.577 1.755 3.095 2.899 4.466.848 1.009 1.859 1.763 3.108 2.175.963.313 1.878.333 2.65-.461.61-.029.486.314.334.676-.772.989-1.745 1.068-2.86.754-1.192-.343-2.298-.862-3.156-1.782-1.402-1.499-2.584-3.154-3.232-5.152z"/><path fill="#D37259" d="M177.299 135.404c-.105-.244-.219-.499-.324-.744.572.078 1.068.372 1.678.411 2.937.157 4.128 1.528 4.024 4.535a1.4 1.4 0 0 0-.239.304c-.133.46-.238.92-.372 1.371-.248.793-.524 1.577-.734 2.38-.572 1.988-1.725 3.604-3.232 4.936-1.268 1.116-2.669 1.322-3.785.637-.944-.578-1.01-1.156-.105-1.822 2.002-1.459 3.147-3.467 3.68-5.877.029-.244.039-.489.086-.734.401-1.166.239-2.37.21-3.555-.067-.206-.095-.431-.153-.637-.181-.441-.371-.881-.743-1.205z"/><path fill="#223739" d="M178.196 141.555c-.525 2.468-1.678 4.525-3.719 6.023-.848.617-.82.999.067 1.44.534.264 1.058.343 1.678.147 1.573-.48 2.574-1.655 3.528-2.889.629-.813 1.058-1.754 1.382-2.733.324-.059.477.049.362.402-.047.724-.295 1.42-.734 1.929-.858 1.028-.982 2.067-.372 3.232-.076.225.01.519-.257.666-.257-.196-.276-.519-.4-.784-.601-.568-1.011-.029-1.507.226-.972.499-1.84 1.479-3.108.832-.744-.323-1.468-.666-1.926-1.41-.152-.245-.438-.225-.686-.274-.229-.333-.982.254-.925-.559 1.43.118 2.546-.548 3.509-1.527 1.096-1.117 1.916-2.42 2.221-4.016.153-.206.124-.47.248-.686.019-.107.038-.215.057-.333.057-.117.153-.166.277-.137.152.108.209.284.305.431z"/></g><defs><clipPath id="a"><path fill="#fff" d="M0 .003h328v280H0z"/></clipPath><clipPath id="b"><rect width="39.192" height="40.26" x="39.749" y="118.935" fill="#fff" rx="19.596"/></clipPath></defs></svg>